<svg width="200" height="133" viewBox="0 0 95 28" fill="none" xmlns="http://www.w3.org/2000/svg">
<path d="M33.9415 25.2361C35.9073 27.0739 38.5867 28 42.0087 28C45.2123 28 47.8042 27.2164 49.7701 25.6635C51.7359 24.1106 52.7115 22.0733 52.7115 19.5516H45.9112L45.8821 19.8365C45.8384 20.2782 45.5472 20.9193 45.0375 21.4891C44.5279 22.0733 43.4503 22.5577 42.0087 22.5577C39.2419 22.5577 37.8586 20.8765 37.8586 17.5C37.8586 14.1377 39.2419 12.4566 42.0087 12.4566C43.4503 12.4566 44.5279 12.9695 45.0375 13.4824C45.2851 13.7531 45.4889 14.0522 45.6345 14.4084C45.9258 15.1065 45.9112 15.306 45.9112 15.4627H52.7115C52.7115 12.941 51.7359 10.8894 49.7701 9.3365C47.8042 7.78358 45.2123 7 42.0087 7C38.5867 7 35.9073 7.9118 33.9415 9.74966C31.9756 11.5875 31 14.1805 31 17.5C31 20.8195 31.9756 23.3982 33.9415 25.2361Z" fill="url(#paint0_linear_1505_466)"/>
<path d="M60.8521 7.28494L52.5665 27.7151H59.4251L60.459 24.9369H69.5309L70.5794 27.7151H77.438L69.1378 7.28494H60.8521ZM62.1918 20.2782L64.7547 13.4539H65.2352L67.7981 20.2782H62.1918Z" fill="url(#paint1_linear_1505_466)"/>
<path d="M81.676 12.5421V27.7151H88.2288V12.5421H95V7.28494H74.9048V12.5421H81.676Z" fill="url(#paint2_linear_1505_466)"/>
<path d="M33.9415 25.2361C35.9073 27.0739 38.5867 28 42.0087 28C45.2123 28 47.8042 27.2164 49.7701 25.6635C51.7359 24.1106 52.7115 22.0733 52.7115 19.5516H45.9112L45.8821 19.8365C45.8384 20.2782 45.5472 20.9193 45.0375 21.4891C44.5279 22.0733 43.4503 22.5577 42.0087 22.5577C39.2419 22.5577 37.8586 20.8765 37.8586 17.5C37.8586 14.1377 39.2419 12.4566 42.0087 12.4566C43.4503 12.4566 44.5279 12.9695 45.0375 13.4824C45.2851 13.7531 45.4889 14.0522 45.6345 14.4084C45.9258 15.1065 45.9112 15.306 45.9112 15.4627H52.7115C52.7115 12.941 51.7359 10.8894 49.7701 9.3365C47.8042 7.78358 45.2123 7 42.0087 7C38.5867 7 35.9073 7.9118 33.9415 9.74966C31.9756 11.5875 31 14.1805 31 17.5C31 20.8195 31.9756 23.3982 33.9415 25.2361Z" fill="url(#paint3_linear_1505_466)"/>
<path d="M60.8521 7.28494L52.5665 27.7151H59.4251L60.459 24.9369H69.5309L70.5794 27.7151H77.438L69.1378 7.28494H60.8521ZM62.1918 20.2782L64.7547 13.4539H65.2352L67.7981 20.2782H62.1918Z" fill="url(#paint4_linear_1505_466)"/>
<path d="M81.676 12.5421V27.7151H88.2288V12.5421H95V7.28494H74.9048V12.5421H81.676Z" fill="url(#paint5_linear_1505_466)"/>
<path d="M6.44008 8.78763C6.88414 11.2576 5.8251 13.518 4.07466 13.8364C2.32422 14.1547 0.545231 12.4104 0.101176 9.94042C-0.342879 7.4704 0.716156 5.21 2.4666 4.89167C4.21704 4.57333 5.99603 6.31762 6.44008 8.78763Z" fill="url(#paint6_linear_1505_466)"/>
<path d="M22.5599 8.78763C22.1159 11.2576 23.1749 13.518 24.9253 13.8364C26.6758 14.1547 28.4548 12.4104 28.8988 9.94042C29.3429 7.4704 28.2838 5.21 26.5334 4.89167C24.783 4.57333 23.004 6.31762 22.5599 8.78763Z" fill="url(#paint7_linear_1505_466)"/>
<path d="M13.7164 4.45009C14.129 7.17421 12.9765 9.61042 11.142 9.8915C9.30761 10.1726 7.48602 8.19211 7.07338 5.46799C6.66075 2.74386 7.81333 0.307661 9.64775 0.0265776C11.4822 -0.254506 13.3038 1.72597 13.7164 4.45009Z" fill="url(#paint8_linear_1505_466)"/>
<path d="M15.4267 4.45009C15.0141 7.17421 16.1667 9.61042 18.0011 9.8915C19.8355 10.1726 21.6571 8.19211 22.0698 5.46799C22.4824 2.74386 21.3298 0.307661 19.4954 0.0265776C17.661 -0.254506 15.8394 1.72597 15.4267 4.45009Z" fill="url(#paint9_linear_1505_466)"/>
<path d="M10.9234 13.3767C10.3407 15.0183 9.84959 17.377 9.71741 19.1545C9.57092 21.1243 9.66674 21.7316 9.70501 21.9742C9.71542 22.0402 9.72157 22.0792 9.71744 22.1112C10.6568 21.803 12.6259 21.1825 12.988 21.1669C12.8982 21.8475 12.8535 23.6379 13.3928 25.3546C13.7684 26.5504 14.1875 27.4498 14.4908 28H8.51249C5.12178 28 2.37307 25.2354 2.37307 21.8251C2.37307 19.6018 3.56152 17.55 5.48459 16.4535L10.409 13.6455C10.578 13.5492 10.7495 13.4596 10.9234 13.3767Z" fill="url(#paint10_linear_1505_466)"/>
<path d="M17.7457 13.3915C15.9533 14.8096 14.0942 17.5354 14.3697 17.4318C14.6563 17.3239 16.7964 17.3284 17.8306 17.3441C17.5796 17.595 16.801 18.7952 15.6947 21.5892C14.7277 24.0314 14.6474 26.622 14.753 28H20.1256C23.5163 28 26.265 25.2354 26.265 21.8251C26.265 19.6018 25.0766 17.55 23.1535 16.4535L18.2291 13.6455C18.0702 13.5549 17.9089 13.4703 17.7457 13.3915Z" fill="url(#paint11_linear_1505_466)"/>
<defs>
<linearGradient id="paint0_linear_1505_466" x1="31" y1="17.3636" x2="95" y2="17.3636" gradientUnits="userSpaceOnUse">
<stop stop-color="#B06AE9"/>
<stop offset="0.557292" stop-color="#FF5E6D"/>
<stop offset="1" stop-color="#FFA54C"/>
</linearGradient>
<linearGradient id="paint1_linear_1505_466" x1="31" y1="17.3636" x2="95" y2="17.3636" gradientUnits="userSpaceOnUse">
<stop stop-color="#B06AE9"/>
<stop offset="0.557292" stop-color="#FF5E6D"/>
<stop offset="1" stop-color="#FFA54C"/>
</linearGradient>
<linearGradient id="paint2_linear_1505_466" x1="31" y1="17.3636" x2="95" y2="17.3636" gradientUnits="userSpaceOnUse">
<stop stop-color="#B06AE9"/>
<stop offset="0.557292" stop-color="#FF5E6D"/>
<stop offset="1" stop-color="#FFA54C"/>
</linearGradient>
<linearGradient id="paint3_linear_1505_466" x1="31" y1="17.3636" x2="95" y2="17.3636" gradientUnits="userSpaceOnUse">
<stop stop-color="#B06AE9"/>
<stop offset="0.557292" stop-color="#FF5E6D"/>
<stop offset="1" stop-color="#FFA54C"/>
</linearGradient>
<linearGradient id="paint4_linear_1505_466" x1="31" y1="17.3636" x2="95" y2="17.3636" gradientUnits="userSpaceOnUse">
<stop stop-color="#B06AE9"/>
<stop offset="0.557292" stop-color="#FF5E6D"/>
<stop offset="1" stop-color="#FFA54C"/>
</linearGradient>
<linearGradient id="paint5_linear_1505_466" x1="31" y1="17.3636" x2="95" y2="17.3636" gradientUnits="userSpaceOnUse">
<stop stop-color="#B06AE9"/>
<stop offset="0.557292" stop-color="#FF5E6D"/>
<stop offset="1" stop-color="#FFA54C"/>
</linearGradient>
<linearGradient id="paint6_linear_1505_466" x1="-1.10748e-07" y1="13.8182" x2="29" y2="13.8182" gradientUnits="userSpaceOnUse">
<stop stop-color="#B06AE9"/>
<stop offset="0.557292" stop-color="#FF5E6D"/>
<stop offset="1" stop-color="#FFA54C"/>
</linearGradient>
<linearGradient id="paint7_linear_1505_466" x1="-1.10748e-07" y1="13.8182" x2="29" y2="13.8182" gradientUnits="userSpaceOnUse">
<stop stop-color="#B06AE9"/>
<stop offset="0.557292" stop-color="#FF5E6D"/>
<stop offset="1" stop-color="#FFA54C"/>
</linearGradient>
<linearGradient id="paint8_linear_1505_466" x1="-1.10748e-07" y1="13.8182" x2="29" y2="13.8182" gradientUnits="userSpaceOnUse">
<stop stop-color="#B06AE9"/>
<stop offset="0.557292" stop-color="#FF5E6D"/>
<stop offset="1" stop-color="#FFA54C"/>
</linearGradient>
<linearGradient id="paint9_linear_1505_466" x1="-1.10748e-07" y1="13.8182" x2="29" y2="13.8182" gradientUnits="userSpaceOnUse">
<stop stop-color="#B06AE9"/>
<stop offset="0.557292" stop-color="#FF5E6D"/>
<stop offset="1" stop-color="#FFA54C"/>
</linearGradient>
<linearGradient id="paint10_linear_1505_466" x1="-1.10748e-07" y1="13.8182" x2="29" y2="13.8182" gradientUnits="userSpaceOnUse">
<stop stop-color="#B06AE9"/>
<stop offset="0.557292" stop-color="#FF5E6D"/>
<stop offset="1" stop-color="#FFA54C"/>
</linearGradient>
<linearGradient id="paint11_linear_1505_466" x1="-1.10748e-07" y1="13.8182" x2="29" y2="13.8182" gradientUnits="userSpaceOnUse">
<stop stop-color="#B06AE9"/>
<stop offset="0.557292" stop-color="#FF5E6D"/>
<stop offset="1" stop-color="#FFA54C"/>
</linearGradient>
</defs>
</svg>
