<svg width="405" height="190" viewBox="0 0 405 190" fill="none" xmlns="http://www.w3.org/2000/svg">
<path d="M84.1333 1.83788C78.2666 4.50454 77.1999 6.63788 81.9999 6.63788C85.4666 6.63788 90.2666 3.30454 90.2666 0.904545C90.2666 -0.428789 88.7999 -0.162122 84.1333 1.83788Z" fill="white"/>
<path d="M96.0001 0.904544C93.4667 1.83788 93.8667 6.23788 96.6667 6.90454C100.133 7.83788 102.267 6.77121 102.267 3.97121C102.267 2.10454 99.2001 -0.562123 97.8667 0.104544C97.7334 0.104544 96.8001 0.504544 96.0001 0.904544Z" fill="white"/>
<path d="M70.8001 3.17121C66.8001 4.90454 63.6001 8.10454 65.8667 7.97121C66.4001 7.83788 69.6001 6.37121 72.9334 4.63788C79.3334 1.17121 77.7334 0.237878 70.8001 3.17121Z" fill="white"/>
<path d="M107.6 2.50455C107.6 4.37122 113.067 7.97122 115.867 7.97122C119.2 7.97122 118.8 5.97122 114.933 3.43789C111.333 1.03789 107.6 0.637888 107.6 2.50455Z" fill="white"/>
<path d="M120.933 3.83791C122.8 5.30458 126 7.17125 128.267 7.97125C131.867 9.17125 132 9.17125 130.267 7.43791C129.2 6.37125 125.867 4.50458 122.933 3.30458L117.6 1.17125L120.933 3.83791Z" fill="white"/>
<path d="M47.2 15.9712C41.2 19.7046 38.4 23.1712 40 24.7712C41.6 26.5046 51.8667 19.0379 54.4 14.2379C56.2667 11.0379 54.4 11.4379 47.2 15.9712Z" fill="white"/>
<path d="M61.0667 15.4379C55.4667 20.1046 55.4667 23.9712 61.0667 23.9712C65.4667 23.9712 72.9334 17.8379 72.9334 14.1046C72.9334 10.6379 65.7334 11.4379 61.0667 15.4379Z" fill="white"/>
<path d="M81.7334 14.5045C78.5334 18.1045 79.4668 23.1712 83.4668 23.7045C91.0668 24.7712 95.6001 20.7712 93.6001 14.6379C92.4001 11.0379 84.9334 11.0379 81.7334 14.5045Z" fill="white"/>
<path d="M103.867 13.5712C101.333 16.1046 102 19.5712 105.733 22.5046C111.6 27.0379 116.933 25.4379 116.933 19.1712C116.933 13.7046 107.733 9.70455 103.867 13.5712Z" fill="white"/>
<path d="M124.133 13.9712C122.267 18.5046 132.667 27.7046 137.467 25.8379C140.667 24.6379 140 22.2379 135.333 17.7046C129.733 12.5046 125.2 11.0379 124.133 13.9712Z" fill="white"/>
<path d="M140.933 14.5046C140.933 16.7712 147.867 23.9712 151.867 26.1046C160.133 30.3712 158.267 24.6379 149.067 17.5712C143.333 13.1712 140.933 12.3712 140.933 14.5046Z" fill="white"/>
<path d="M34.9333 20.7712C28.9333 26.2379 28.9333 26.3712 33.7333 22.7712C38.7999 19.0379 43.3333 14.6379 41.9999 14.6379C41.7333 14.6379 38.5333 17.4379 34.9333 20.7712Z" fill="white"/>
<path d="M154.933 18.5046C156.4 20.2379 160 23.4379 162.933 25.7046L168.267 29.8379L164.267 25.4379C162.133 23.0379 158.533 19.8379 156.267 18.2379L152.267 15.4379L154.933 18.5046Z" fill="white"/>
<path d="M38.9333 33.7046C35.5999 37.0379 34.2666 39.5712 34.2666 42.5046C34.2666 46.2379 34.6666 46.6379 38.3999 46.6379C44.3999 46.6379 50.5333 40.1046 49.9999 34.3712C49.4666 27.9712 44.9333 27.7046 38.9333 33.7046Z" fill="white"/>
<path d="M62.9333 32.6379C59.3333 36.1046 58.5333 42.3712 61.2 45.0379C64.1333 47.9712 70.2667 46.9046 74.4 42.7712C78.4 38.6379 79.4667 33.7046 76.6667 30.9046C73.8667 28.1046 66.4 29.0379 62.9333 32.6379Z" fill="white"/>
<path d="M91.8666 31.4379C88.1333 33.9712 87.8666 41.3046 91.3333 44.3712C94.6666 47.4379 102.667 47.3046 105.333 44.2379C112.8 35.9712 101.2 24.9046 91.8666 31.4379Z" fill="white"/>
<path d="M120.667 30.7712C119.067 31.5712 118.267 33.7046 118.267 36.7712C118.267 46.1046 130.267 51.8379 134.933 44.7712C139.6 37.5712 128.133 26.2379 120.667 30.7712Z" fill="white"/>
<path d="M26.5333 32.6379C23.0666 35.1712 16.2666 46.3712 17.4666 47.7046C19.6 49.7046 29.0666 39.7046 30.9333 33.5712C31.8666 30.1046 30.6666 29.8379 26.5333 32.6379Z" fill="white"/>
<path d="M145.867 31.5712C145.333 31.9712 144.933 34.3712 144.933 36.7712C144.933 42.2379 151.2 49.3046 156.133 49.3046C160.533 49.3046 161.733 46.5046 159.6 41.4379C157.067 35.0379 148.4 28.9046 145.867 31.5712Z" fill="white"/>
<path d="M165.067 36.9046C168 44.7713 175.733 53.5713 177.867 51.4379C179.333 50.1046 175.467 41.9713 171.333 37.7046C166 32.2379 163.067 31.8379 165.067 36.9046Z" fill="white"/>
<path d="M45.0667 52.5046C38.6667 56.1046 36.1334 65.7046 40.6667 69.7046C44.2667 72.9046 49.4667 72.5046 54.1334 68.5046C57.4667 65.8379 58.2667 63.9712 58.2667 60.1046C58.2667 51.8379 52.4 48.5046 45.0667 52.5046Z" fill="white"/>
<path d="M73.5999 53.9712C69.3332 58.1046 69.0666 65.4379 72.9332 69.3046C79.3332 75.7046 91.5999 70.2379 91.5999 60.9046C91.5999 51.5712 80.2666 47.1712 73.5999 53.9712Z" fill="white"/>
<path d="M20.2666 55.4379C14.6666 61.4379 14.2666 73.3046 19.5999 73.3046C22.7999 73.3046 28.3999 66.5046 29.5999 61.3046C31.5999 52.2379 26.2666 48.9046 20.2666 55.4379Z" fill="white"/>
<path d="M140 53.3046C136.133 54.9046 134.8 61.3046 137.467 66.2379C141.467 74.1046 148.267 76.6379 152.933 71.9712C160.267 64.6379 149.733 49.4379 140 53.3046Z" fill="white"/>
<path d="M7.99991 58.2379C6.26658 61.1712 4.53325 66.3712 4.13325 69.5712C3.19991 74.7712 3.33325 75.1712 5.33325 73.5712C8.39991 71.0379 11.8666 61.0379 11.3332 56.5046L10.9332 52.6379L7.99991 58.2379Z" fill="white"/>
<path d="M59.6 78.2379C51.4666 81.1712 48.6666 92.7712 54.6666 98.3712C58.9333 102.371 66.2666 102.238 70 98.2379C73.8666 94.1046 74 85.0379 70.2666 81.3046C68.8 79.8379 67.0666 78.6379 66.4 78.6379C65.7333 78.6379 64.4 78.3712 63.3333 78.1046C62.4 77.7046 60.6666 77.8379 59.6 78.2379Z" fill="white"/>
<path d="M25.5999 81.3046C21.8665 85.4379 21.4665 94.6379 24.9332 98.9046C28.5332 103.571 31.9999 103.571 36.2665 99.3046C40.2665 95.4379 40.7999 86.3712 37.4665 81.5712C34.9332 77.8379 28.9332 77.7046 25.5999 81.3046Z" fill="white"/>
<path d="M89.2001 81.7046C86.0001 85.0379 85.2001 92.9046 87.6001 97.3046C89.4667 100.771 97.0667 103.038 101.333 101.438C109.2 98.3712 111.333 86.2379 104.8 80.9046C100.667 77.5712 92.6667 77.9712 89.2001 81.7046Z" fill="white"/>
<path d="M6.53328 83.3046C4.26661 88.2379 4.53328 98.9046 6.93328 102.105C8.93328 104.638 8.93328 104.638 11.5999 101.438C13.4666 99.3046 14.2666 96.3712 14.2666 91.7046C14.2666 80.9046 9.73328 76.1046 6.53328 83.3046Z" fill="white"/>
<path d="M0 91.9712C0 97.4379 0.266667 99.7046 0.533333 96.9046C0.8 94.2379 0.8 89.7046 0.533333 86.9046C0.266667 84.2379 0 86.5046 0 91.9712Z" fill="white"/>
<path d="M134.267 102.638V122.638H148.267C162.267 122.638 162.267 122.638 162.267 119.305C162.267 116.238 161.867 116.105 152 115.705L141.6 115.305V110.638V105.971L149.333 105.571C156.4 105.171 156.933 104.905 156.933 101.971C156.933 98.7712 156.533 98.6379 148.933 98.6379H140.933V93.9712V89.3045H151.6C162.133 89.3045 162.267 89.3045 162.267 85.9712V82.6379H148.267H134.267V102.638Z" fill="white"/>
<path d="M178.267 102.638V122.638H190.667C208.8 122.638 208.933 122.505 208.933 102.771C208.933 82.6379 208.933 82.6379 191.2 82.6379H178.267V102.638ZM200.667 90.9045C201.6 91.8379 202.267 96.5045 202.267 102.638C202.267 108.771 201.6 113.438 200.667 114.371C199.733 115.305 196.133 115.971 192.667 115.971H186.267V102.638V89.3045H192.667C196.133 89.3045 199.733 89.9712 200.667 90.9045Z" fill="white"/>
<path d="M227.6 101.305C227.6 123.171 227.2 122.638 242.933 122.638C258.667 122.638 258.267 123.171 258.267 101.305V82.6379H254.267H250.4L250 98.9045L249.6 115.305H242.933H236.267L235.867 98.9045L235.467 82.6379H231.6H227.6V101.305Z" fill="white"/>
<path d="M276.933 102.638V122.638H280.267C283.467 122.638 283.6 122.238 283.6 114.638V106.638H291.6H299.6V114.638V122.638H303.6H307.6V102.638V82.6379H303.6H299.6V90.6379V98.6379H291.6H283.6V90.6379C283.6 83.0379 283.467 82.6379 280.267 82.6379H276.933V102.638Z" fill="white"/>
<path d="M324.933 99.9712C324.933 122.238 325.2 122.638 341.467 122.638C356.667 122.638 356.933 122.238 356.933 99.7045V82.6379H352.933H349.067L348.667 98.9045L348.267 115.305H340.933H333.6L333.2 98.9045L332.8 82.6379H328.933H324.933V99.9712Z" fill="white"/>
<path d="M374.267 102.638V122.638H387.067C403.733 122.638 404.933 121.971 404.933 112.238C404.933 107.971 404.267 103.838 403.467 103.038C402.4 101.971 402.4 101.305 403.467 100.771C404.267 100.238 404.933 96.3712 404.933 91.9712C404.933 86.2379 404.4 84.1045 402.8 83.4379C401.6 83.0379 394.8 82.6379 387.467 82.6379H374.267V102.638ZM397.6 93.9712C397.6 97.9712 397.467 97.9712 390 98.3712L382.267 98.7712V93.9712V89.1712L390 89.5712C397.467 89.9712 397.6 89.9712 397.6 93.9712ZM397.6 110.638V115.305L390 115.705L382.267 116.105V110.638V105.171L390 105.571L397.6 105.971V110.638Z" fill="white"/>
<path d="M43.5999 110.238C36.6666 112.638 36.5332 124.905 43.4666 130.238C46.2666 132.371 51.8666 132.371 54.6666 130.238C55.9999 129.438 57.3332 126.505 57.7332 123.838C58.3999 119.705 57.9999 118.371 54.7999 114.905C50.7999 110.638 46.9332 109.038 43.5999 110.238Z" fill="white"/>
<path d="M74.8 111.171C67.7333 114.238 66.8 121.971 72.8 128.105C79.0666 134.238 87.3333 132.905 90 125.305C92 119.838 89.7333 113.838 84.8 111.305C80.2666 108.905 80 108.905 74.8 111.171Z" fill="white"/>
<path d="M17.2 112.238C13.3334 116.105 17.4667 130.638 22.9334 132.771C29.4667 135.305 31.3334 121.705 25.4667 114.771C21.7334 110.371 19.7334 109.705 17.2 112.238Z" fill="white"/>
<path d="M3.86659 117.971C4.53326 124.905 8.39993 134.638 10.3999 134.638C13.7333 134.638 9.46659 116.505 5.33326 113.038C3.46659 111.438 3.19992 111.971 3.86659 117.971Z" fill="white"/>
<path d="M141.333 135.971C135.333 138.371 133.6 148.638 138.4 153.438C141.333 156.371 148.933 156.505 150 153.571C150.4 152.371 149.6 152.105 147.2 152.638C143.067 153.705 139.6 150.371 139.6 145.438C139.6 140.771 141.867 138.638 146.533 138.638C150.533 138.638 151.6 136.771 148.133 135.438C145.6 134.505 145.067 134.505 141.333 135.971Z" fill="white"/>
<path d="M167.6 136.371C165.467 137.438 163.867 139.838 163.067 143.038C161.333 149.705 165.067 155.171 171.867 155.705C177.867 156.238 181.6 152.371 181.6 145.171C181.6 137.171 174.667 132.771 167.6 136.371ZM177.2 142.105C178.533 144.905 178.4 146.238 176.8 149.038C174.267 153.571 170.267 153.571 167.733 149.038C164.933 144.238 167.467 138.638 172.267 138.638C174.667 138.638 176.133 139.705 177.2 142.105Z" fill="white"/>
<path d="M194.267 145.971C194.267 153.971 194.667 155.971 196.267 155.971C197.867 155.971 198.267 154.238 198.4 148.238L198.533 140.638L201.2 148.238C202.667 152.505 204.533 155.971 205.467 155.971C206.4 155.971 208.4 152.238 209.867 147.571L212.667 139.305L212.8 147.571C212.933 154.105 213.333 155.971 214.933 155.971C216.533 155.971 216.933 153.971 216.933 145.971C216.933 136.371 216.8 135.971 213.867 135.971C211.333 135.971 210.4 137.171 208.4 143.305C207.2 147.305 205.867 150.638 205.6 150.638C205.333 150.638 204 147.305 202.8 143.305C200.8 137.171 199.867 135.971 197.333 135.971C194.4 135.971 194.267 136.371 194.267 145.971Z" fill="white"/>
<path d="M230.267 145.971C230.267 153.971 230.667 155.971 232.267 155.971C233.867 155.971 234.267 154.238 234.4 148.238L234.533 140.638L237.2 148.238C238.667 152.505 240.533 155.971 241.467 155.971C242.4 155.971 244.4 152.238 245.867 147.571L248.667 139.305L248.8 147.571C248.933 154.105 249.333 155.971 250.933 155.971C252.533 155.971 252.933 153.971 252.933 145.971C252.933 136.371 252.8 135.971 249.867 135.971C247.333 135.971 246.4 137.171 244.4 143.305C243.2 147.305 241.867 150.638 241.6 150.638C241.333 150.638 240 147.305 238.8 143.305C236.8 137.171 235.867 135.971 233.333 135.971C230.4 135.971 230.267 136.371 230.267 145.971Z" fill="white"/>
<path d="M266.267 143.305C266.267 151.571 269.2 155.971 274.933 155.971C280.667 155.971 283.6 151.571 283.6 143.305C283.6 137.705 283.2 135.971 281.6 135.971C280.133 135.971 279.6 137.705 279.6 143.171C279.6 151.171 277.067 154.905 273.2 152.371C271.6 151.438 270.8 148.771 270.533 143.438C270.267 137.971 269.6 135.971 268.267 135.971C266.8 135.971 266.267 137.838 266.267 143.305Z" fill="white"/>
<path d="M296.933 145.971C296.933 153.838 297.333 155.971 298.933 155.971C300.267 155.971 300.933 153.971 301.2 148.505L301.6 141.038L305.6 148.238C308.4 152.905 310.667 155.438 312.667 155.705C315.467 156.105 315.6 155.705 315.6 146.105C315.6 137.971 315.2 135.971 313.6 135.971C312 135.971 311.6 137.705 311.6 143.571L311.467 151.305L307.2 143.705C304 137.838 302.133 135.971 300 135.971C297.067 135.971 296.933 136.505 296.933 145.971Z" fill="white"/>
<path d="M328.933 145.971C328.933 153.971 329.333 155.971 330.933 155.971C332.533 155.971 332.933 153.971 332.933 145.971C332.933 137.971 332.533 135.971 330.933 135.971C329.333 135.971 328.933 137.971 328.933 145.971Z" fill="white"/>
<path d="M344.933 137.305C344.933 137.971 346.133 138.638 347.6 138.638C350 138.638 350.267 139.571 350.267 147.305C350.267 154.105 350.667 155.971 352.267 155.971C353.867 155.971 354.267 154.105 354.267 147.305C354.267 138.905 354.4 138.638 357.6 138.638C359.467 138.638 360.933 137.971 360.933 137.305C360.933 136.505 357.333 135.971 352.933 135.971C348.533 135.971 344.933 136.505 344.933 137.305Z" fill="white"/>
<path d="M373.467 141.838C375.333 145.171 376.933 149.571 376.933 151.838C376.933 154.638 377.6 155.971 378.933 155.971C380.267 155.971 380.933 154.638 380.933 151.971C380.933 149.705 382.133 145.571 383.6 142.638C386.8 136.505 386.8 135.971 384.533 135.971C383.6 135.971 381.867 137.971 380.667 140.238L378.667 144.638L376.4 140.238C375.2 137.971 373.2 135.971 372.133 135.971C370.4 135.971 370.667 137.038 373.467 141.838Z" fill="white"/>
<path d="M34.9333 139.571C31.4667 142.905 35.7333 151.971 42.6667 155.971C49.4667 159.705 52.6667 152.505 47.7333 144.505C44.4 139.171 37.8667 136.638 34.9333 139.571Z" fill="white"/>
<path d="M17.5999 139.971C16.2666 142.105 21.9999 152.905 25.9999 155.971C30.6666 159.705 32.2666 157.571 29.5999 151.171C26.2666 143.171 19.4666 136.905 17.5999 139.971Z" fill="white"/>
<path d="M13.0666 146.505C14.6666 149.305 17.4666 153.438 19.1999 155.438L22.5333 159.305L20.1333 155.305C13.0666 143.305 7.06661 135.838 13.0666 146.505Z" fill="white"/>
<path d="M56.5334 160.905C53.3334 163.971 57.3334 170.771 64.5334 174.505C68.9334 176.771 70.2668 176.238 70.2668 172.505C70.2668 167.438 67.8668 163.971 62.9334 161.838C57.6001 159.705 57.6001 159.705 56.5334 160.905Z" fill="white"/>
<path d="M80.6667 160.905C75.3333 162.238 77.0667 171.705 83.2 174.505C87.7333 176.638 91.6 174.238 91.6 169.571C91.6 163.305 86.6667 159.305 80.6667 160.905Z" fill="white"/>
<path d="M38.2666 163.038C38.2666 165.838 41.9999 170.238 46.7999 173.171C55.9999 178.905 56.9333 175.571 48.3999 167.171C42.7999 161.438 38.2666 159.571 38.2666 163.038Z" fill="white"/>
<path d="M28.9333 163.705C28.9333 165.305 38.4 173.838 42.5334 175.971C44.9334 177.305 44.5334 176.638 40.9334 172.638C35.3333 166.771 28.9333 161.971 28.9333 163.705Z" fill="white"/>
<path d="M76.2666 179.971C75.0666 181.838 81.6 187.971 84.8 187.971C87.2 187.971 87.3333 187.571 86.1333 184.771C85.3333 183.038 83.2 180.905 81.3333 180.105C77.4666 178.371 77.3333 178.371 76.2666 179.971Z" fill="white"/>
<path d="M93.3333 179.571C91.1999 180.371 91.0666 185.571 93.1999 187.705C95.4666 189.971 99.5999 187.171 99.5999 183.438C99.5999 181.038 96.7999 177.971 95.1999 178.771C95.0666 178.771 94.1333 179.171 93.3333 179.571Z" fill="white"/>
<path d="M52.9333 180.638C52.9333 181.438 65.7334 187.971 67.2 187.971C68.4 187.971 58.8 182.238 55.3333 180.905C54 180.505 52.9333 180.371 52.9333 180.638Z" fill="white"/>
<path d="M65.5999 183.305C67.8666 185.171 71.4666 187.171 73.5999 187.971C77.5999 189.171 77.5999 189.171 72.3999 184.638C69.4666 182.105 65.8666 179.971 64.3999 179.971C61.8666 180.105 61.9999 180.371 65.5999 183.305Z" fill="white"/>
<path d="M106.4 183.438C103.2 187.571 102.933 189.305 105.467 189.305C108.133 189.305 114.267 184.105 114.267 181.838C114.267 178.771 109.333 179.705 106.4 183.438Z" fill="white"/>
<path d="M122.8 182.105C118.533 184.371 114 188.105 114.8 188.905C115.6 189.705 122.4 186.771 125.867 184.105C130 180.771 127.867 179.438 122.8 182.105Z" fill="white"/>
</svg>
