<svg width="70" height="70" viewBox="0 0 70 70" fill="none" xmlns="http://www.w3.org/2000/svg">
<mask id="mask0_25_36" style="mask-type:luminance" maskUnits="userSpaceOnUse" x="0" y="0" width="70" height="70">
<path d="M69.3598 0H0V69.2875H69.3598V0Z" fill="white"/>
</mask>
<g mask="url(#mask0_25_36)">
<path d="M1.56566 25.8864C-1.04002 22.8011 -6.10991e-05 19.3115 1.94409 17.5869C3.0305 16.5062 4.5017 15.9014 6.03405 15.9054C7.56639 15.9095 9.03438 16.5221 10.115 17.6086C11.1957 18.6949 11.8005 20.1661 11.7965 21.6985C11.7924 23.2309 11.1798 24.6988 10.0933 25.7795C10.5267 26.4208 11.1073 26.9928 11.3182 27.6803C11.5291 28.3678 11.3818 29.1767 11.3962 29.9307C11.3962 30.1271 11.3355 30.4016 11.4396 30.5085C12.9446 32.0193 14.4728 33.5098 15.998 35.0034L16.1916 34.9022V34.3014C16.1916 29.4656 16.1916 24.6268 16.1916 19.7881C16.1896 19.4392 16.0895 19.0979 15.9027 18.8031C15.4153 18.1147 15.1256 17.3061 15.0649 16.4648C15.0041 15.6236 15.1747 14.7818 15.5583 14.0305C15.9418 13.2793 16.5235 12.6474 17.2405 12.2031C17.9575 11.7589 18.7823 11.5193 19.6257 11.5104C20.4691 11.5013 21.2989 11.7234 22.0252 12.1522C22.7514 12.5811 23.3465 13.2005 23.7459 13.9434C24.1453 14.6863 24.3338 15.5243 24.291 16.3667C24.2482 17.209 23.9757 18.0236 23.5031 18.7222C23.4251 18.8435 23.3414 18.962 23.2633 19.0775C28.9484 25.0169 39.9085 25.3924 46.157 19.1006C45.2904 17.9104 44.8599 16.5931 45.2297 15.1141C45.7208 13.1381 46.9976 11.9624 48.9851 11.5666C49.8691 11.4078 50.7805 11.5152 51.6034 11.8752C52.4264 12.2352 53.1238 12.8317 53.6071 13.5888C54.6616 15.2788 54.6182 16.986 53.5898 18.6962C53.3716 19.0542 53.2474 19.4617 53.2287 19.8806C53.2056 24.7164 53.2143 29.5551 53.2143 34.3938V35.0583C53.9278 34.4198 54.546 33.9028 55.1266 33.3424C56.0279 32.4757 56.9139 31.5918 57.7843 30.6905C57.9515 30.5423 58.055 30.3353 58.0732 30.1127C57.7324 27.8016 57.8421 27.4232 59.3847 25.8835C56.7443 22.7203 57.8883 19.2595 59.7718 17.5869C60.8799 16.6323 62.3086 16.1335 63.77 16.1911C65.2314 16.2487 66.6165 16.8583 67.6461 17.897C68.6757 18.9357 69.273 20.3262 69.3175 21.788C69.3622 23.2498 68.8507 24.6741 67.8864 25.7737C68.3255 26.4439 68.8715 27.0447 69.1488 27.7496C69.4333 28.5149 69.4253 29.3583 69.1261 30.118C68.8271 30.8777 68.258 31.5002 67.5282 31.8661C67.367 31.9309 67.2316 32.0468 67.1429 32.1961C67.0541 32.3455 67.017 32.5199 67.0371 32.6924C67.0371 42.4411 67.0371 52.1898 67.0371 61.9385C67.0144 62.1112 67.0491 62.2868 67.1357 62.4381C67.2223 62.5894 67.3561 62.7082 67.5166 62.7762C68.0763 63.0621 68.5437 63.5006 68.8647 64.0409C69.1857 64.5812 69.3473 65.2013 69.3308 65.8296C69.3482 66.5518 69.3482 67.274 69.3308 67.9962C69.3134 68.8137 68.8917 69.273 68.0915 69.2759C65.0583 69.2903 62.0251 69.2759 58.9947 69.2759C58.3592 69.2759 57.8566 68.9467 57.8219 68.3255C57.7505 67.2472 57.7718 66.1648 57.8854 65.0901C58.0125 64.027 58.7088 63.2875 59.6187 62.7329C59.7373 62.6581 59.8387 62.5588 59.9159 62.4418C59.9931 62.3247 60.0445 62.1925 60.0664 62.054C60.0896 53.9904 60.0954 45.9268 60.0838 37.8632C60.0838 37.7766 60.0838 37.69 60.052 37.4993C59.1651 38.3284 58.3621 39.1055 57.5272 39.8479C55.1633 41.9699 52.4966 43.7282 49.6148 45.0651C48.9707 45.3539 48.936 45.6428 49.1469 46.2552C51.5773 53.2461 53.9932 60.2417 56.3948 67.2422C56.8946 68.6866 56.4757 69.2788 54.9504 69.2788H14.3716C12.8897 69.2788 12.468 68.6837 12.9533 67.274C15.3644 60.2813 17.7814 53.2875 20.2041 46.2928C20.4236 45.6572 20.3977 45.3539 19.7188 45.0419C16.1127 43.3587 12.8395 41.0395 10.0558 38.1955C9.84655 37.9624 9.65353 37.7154 9.47802 37.456L9.2903 37.5802C9.27579 37.7824 9.24984 37.9846 9.24984 38.1869C9.24984 46.0829 9.24984 53.9789 9.24984 61.8749C9.2273 62.0701 9.26896 62.2673 9.3685 62.4367C9.46804 62.6061 9.62007 62.7384 9.80156 62.8137C10.3295 63.0901 10.7722 63.5051 11.082 64.0141C11.392 64.5229 11.5575 65.1066 11.5609 65.7025C11.5955 66.471 11.584 67.2422 11.5609 68.0135C11.5435 68.8542 11.1044 69.2846 10.2407 69.2875C7.28257 69.2875 4.32252 69.2875 1.36056 69.2875C0.427479 69.2875 0.0201603 68.8542 0.00860522 67.898C0.00860522 67.2258 0.00860522 66.5518 0.00860522 65.8759C-0.0108778 65.2319 0.154881 64.5959 0.486192 64.0433C0.817503 63.4908 1.30044 63.045 1.87765 62.7588C2.02782 62.6959 2.15336 62.5857 2.23522 62.4449C2.31707 62.3042 2.35076 62.1405 2.33118 61.9788C2.31771 52.2071 2.31097 42.4343 2.31097 32.6605C2.30762 32.5308 2.2768 32.4032 2.22053 32.2861C2.16427 32.1692 2.08383 32.0654 1.98453 31.9817C-0.427602 30.494 -0.676037 27.9374 1.42989 26.051C1.47908 25.9995 1.52446 25.9445 1.56566 25.8864ZM53.8526 66.9447L46.7434 46.3303C38.6779 49.2018 30.6673 49.1931 22.6278 46.3303C20.2532 53.2171 17.896 60.0578 15.5214 66.9505L53.8526 66.9447ZM22.6538 39.1055C23.2026 37.5109 23.6937 36.0867 24.1878 34.6625C24.5518 33.6196 24.7655 33.4608 25.8661 33.4608C31.713 33.4608 37.5619 33.4608 43.4126 33.4608C44.5883 33.4608 44.8022 33.611 45.1892 34.729L46.6972 39.1141L52.0761 36.0001L51.9807 35.7718C50.5941 35.7718 49.2075 35.7718 47.8209 35.7718C46.5903 35.7718 46.2292 35.4136 46.2292 34.1888C46.2292 30.4564 46.2292 26.7251 46.2292 22.9947V22.2436C38.4728 27.2787 30.8319 27.2787 23.1189 22.2436V23.0553C23.1189 26.8108 23.1189 30.5662 23.1189 34.3216C23.1189 35.3616 22.7116 35.7661 21.6745 35.7661C20.4006 35.7661 19.1237 35.7661 17.8498 35.7661C17.6822 35.7661 17.5146 35.8007 17.3471 35.8181L17.2893 36.0087L22.6538 39.1055ZM33.8998 46.1772C39.3885 46.1396 43.8748 45.169 48.1646 43.2162C52.3708 41.3009 55.8806 38.467 59.0901 35.1883C59.8758 34.3852 60.2456 33.6052 60.0896 32.5392C60.0463 32.3682 59.9863 32.2017 59.9105 32.0424C59.7421 32.1079 59.5837 32.1963 59.4396 32.3052C58.7145 33.0072 58.0125 33.7496 57.2874 34.4401C50.2966 41.246 41.9422 44.4266 32.1926 43.7333C25.2769 43.2393 19.193 40.6654 13.9326 36.1473C12.5661 34.9716 11.3327 33.6515 10.0182 32.4064C9.83793 32.2657 9.64449 32.1429 9.44046 32.0395C9.37695 32.2764 9.29602 32.5104 9.25564 32.7502C9.07936 33.7381 9.42604 34.4834 10.2175 35.1189C10.7253 35.5643 11.2075 36.0378 11.6619 36.5373C18.0347 42.8522 25.7275 46.0096 33.9056 46.1772H33.8998ZM44.4785 39.8219C44.051 38.5797 43.6379 37.3318 43.1786 36.0982C43.1168 36.0112 43.0354 35.9398 42.9412 35.8897C42.8469 35.8396 42.7423 35.812 42.6355 35.8093C37.3163 35.792 31.998 35.792 26.6808 35.8093C26.5832 35.8118 26.4874 35.8365 26.4008 35.8816C26.3142 35.9265 26.239 35.9908 26.181 36.0694C25.7188 37.3231 25.297 38.5912 24.8637 39.8507C31.1989 42.208 38.8888 42.0029 44.4872 39.8075L44.4785 39.8219ZM4.68555 32.3543V62.288H6.90992V32.3543H4.68555ZM64.6711 62.314V32.3543H62.4497V62.314H64.6711ZM5.81217 25.3635C6.49779 25.3635 7.16801 25.1602 7.73809 24.7793C8.30817 24.3984 8.7525 23.857 9.01483 23.2235C9.27724 22.5901 9.34588 21.8931 9.21211 21.2207C9.07834 20.5482 8.74823 19.9305 8.26335 19.4457C7.77859 18.9609 7.16091 18.6307 6.48847 18.4971C5.81602 18.3633 5.11901 18.4319 4.48559 18.6943C3.85216 18.9567 3.31076 19.401 2.92985 19.9711C2.54894 20.5411 2.34564 21.2114 2.34564 21.8969C2.34564 22.8163 2.71086 23.6981 3.36096 24.3482C4.01107 24.9983 4.89279 25.3635 5.81217 25.3635ZM67.0197 21.9143C67.0231 21.2262 66.8217 20.5528 66.4411 19.9795C66.0605 19.4064 65.5179 18.9594 64.8823 18.6955C64.2469 18.4318 63.5473 18.363 62.8726 18.4982C62.1979 18.6332 61.5788 18.9661 61.0938 19.4543C60.6089 19.9424 60.2803 20.5639 60.1497 21.2394C60.0191 21.9149 60.0925 22.6141 60.3607 23.2478C60.6287 23.8815 61.0793 24.4211 61.6551 24.7978C62.2308 25.1746 62.9057 25.3715 63.5937 25.3635C64.5031 25.3529 65.3718 24.9854 66.0127 24.3402C66.6536 23.6949 67.0153 22.8237 67.0197 21.9143ZM20.7645 33.4232V20.6952H18.5402V33.4232H20.7645ZM50.8079 33.4232V20.6952H48.5835V33.4232H50.8079ZM19.6436 13.82C19.1855 13.82 18.7377 13.9562 18.3571 14.2113C17.9765 14.4663 17.6803 14.8289 17.5062 15.2526C17.3321 15.6765 17.2879 16.1425 17.3791 16.5914C17.4705 17.0405 17.6931 17.4522 18.019 17.7743C18.3448 18.0964 18.759 18.3145 19.209 18.4007C19.6589 18.4869 20.1244 18.4374 20.5462 18.2585C20.968 18.0796 21.3271 17.7793 21.5779 17.3959C21.8288 17.0125 21.9599 16.5631 21.9547 16.1049C21.9434 15.498 21.6955 14.9194 21.2638 14.4925C20.8321 14.0657 20.2508 13.8243 19.6436 13.82ZM49.7102 13.82C49.252 13.8147 48.8027 13.9459 48.4192 14.1967C48.0357 14.4475 47.7355 14.8066 47.5566 15.2284C47.3777 15.6502 47.3282 16.1157 47.4144 16.5657C47.5007 17.0156 47.7187 17.4299 48.0408 17.7557C48.3629 18.0815 48.7747 18.3042 49.2237 18.3955C49.6726 18.4868 50.1386 18.4426 50.5625 18.2685C50.9862 18.0943 51.3487 17.7982 51.6039 17.4175C51.8589 17.037 51.9952 16.5891 51.9952 16.131C51.9908 15.5261 51.751 14.9468 51.3265 14.5159C50.9021 14.0849 50.3264 13.8363 49.7217 13.8228L49.7102 13.82ZM2.33408 66.91H9.24404C9.24404 66.4911 9.27007 66.13 9.24404 65.7718C9.18624 65.1074 8.805 64.6885 8.13765 64.6741C6.5777 64.6452 5.01487 64.6481 3.45782 64.6741C3.31202 64.6674 3.16639 64.6906 3.02985 64.7421C2.89332 64.7937 2.76876 64.8727 2.66381 64.9741C2.55887 65.0755 2.47574 65.1973 2.41955 65.332C2.36334 65.4667 2.33524 65.6115 2.33696 65.7574C2.31097 66.1329 2.33408 66.5142 2.33408 66.91ZM67.0429 66.9389C67.0429 66.5229 67.0573 66.1849 67.0429 65.8498C67.0024 65.1218 66.5893 64.6943 65.8642 64.6683C64.3275 64.6482 62.7906 64.6539 61.2567 64.6683C60.9874 64.6527 60.7224 64.7411 60.5165 64.9153C60.3106 65.0895 60.1795 65.3362 60.1503 65.6043C60.1155 66.0476 60.1155 66.4928 60.1503 66.936L67.0429 66.9389ZM5.73129 29.9913C6.5026 29.9913 7.27102 30.0086 8.04232 29.9913C8.19838 29.9984 8.35427 29.9736 8.5005 29.9188C8.64673 29.8639 8.78033 29.7799 8.89318 29.6719C9.00612 29.5638 9.09584 29.434 9.15713 29.2904C9.21851 29.1467 9.25001 28.992 9.24984 28.8358C9.24984 28.1829 8.75583 27.712 8.01344 27.7034C6.52282 27.6861 5.0322 27.6832 3.54159 27.7034C3.38482 27.6934 3.22768 27.716 3.0801 27.7698C2.93253 27.8237 2.79773 27.9075 2.68423 28.0161C2.57073 28.1248 2.48101 28.2557 2.42074 28.4008C2.36047 28.5459 2.33096 28.7019 2.33408 28.8589C2.33408 29.5118 2.82806 29.9769 3.56759 29.9971C4.30712 30.0174 5.01198 29.9913 5.73129 29.9913ZM63.5908 27.6803C62.8455 27.6803 62.1002 27.6803 61.3549 27.6803C60.6095 27.6803 60.1242 28.1512 60.1098 28.8041C60.0954 29.4569 60.5951 29.9596 61.378 29.9798C62.8455 29.9933 64.3129 29.9933 65.7805 29.9798C66.5229 29.9798 67.0111 29.506 67.0255 28.856C67.04 28.2061 66.5373 27.7005 65.7573 27.6832C65.0351 27.6717 64.313 27.6861 63.5908 27.6861V27.6803Z" fill="white"/>
<path d="M38.132 18.4391C37.5744 18.4391 37.2162 17.9769 37.0256 17.5725C36.4478 16.3592 36.0029 15.0852 35.4338 13.869C35.224 13.4566 34.9079 13.1075 34.5181 12.858C33.7092 12.3437 32.831 11.9393 31.9961 11.4656C30.9331 10.8561 30.9331 9.84788 31.9961 9.22676L32.0597 9.195C33.1199 8.58549 34.4054 8.18102 35.171 7.31438C35.9365 6.44775 36.1849 5.11313 36.6587 3.98361C36.78 3.69474 36.8955 3.40586 37.014 3.11698C37.222 2.60855 37.5629 2.26767 38.1435 2.25035C38.7242 2.23301 39.065 2.59988 39.2875 3.1112C39.8161 4.3736 40.3187 5.64756 40.885 6.89263C41.0544 7.24808 41.3207 7.54847 41.6534 7.75926C42.52 8.28791 43.4184 8.73565 44.2966 9.23256C45.3568 9.83337 45.3597 10.8561 44.2966 11.4685C43.9154 11.72 43.5122 11.9366 43.092 12.1155C41.5147 12.676 40.6365 13.8112 40.1744 15.377C39.9369 16.1551 39.6214 16.907 39.2326 17.6216C39.0304 18.0058 38.7097 18.4391 38.132 18.4391ZM34.7492 10.2234C35.6361 10.8012 36.4825 11.1506 37.0053 11.7718C37.5282 12.3929 37.7536 13.3115 38.1089 14.0828C38.6866 12.3293 39.5532 10.9398 41.4771 10.3101C39.455 9.78138 38.7415 8.24169 38.1204 6.55464C37.5687 8.30523 36.806 9.76115 34.7492 10.2234Z" fill="white"/>
<path d="M27.7583 2.27059V0H30.0434V2.27059L30.0635 2.25325H27.7324L27.7583 2.27059Z" fill="white"/>
<path d="M27.7554 4.56137H25.4849V2.27056H27.7583L27.7324 2.25323V4.5816L27.7554 4.56137Z" fill="white"/>
<path d="M30.0434 2.27056H32.3169V4.56137H30.0434L30.0607 4.5816V2.25323L30.0434 2.27056Z" fill="white"/>
<path d="M53.2144 2.27637H55.4214V4.52095H53.2144V2.27637Z" fill="black"/>
<path d="M15.0679 5.69092V3.46655H17.3038V5.69092H15.0679Z" fill="black"/>
<path d="M30.0434 4.5614V6.83488H27.7554V4.5614L27.7381 4.58162H30.0665L30.0434 4.5614Z" fill="black"/>
<path d="M27.7583 17.2402V15.0217H30.0086V17.2345L27.7583 17.2402Z" fill="black"/>
</g>
</svg>
