<svg width="71" height="70" viewBox="0 0 71 70" fill="none" xmlns="http://www.w3.org/2000/svg">
<path d="M12.074 37.3335H1.8211C1.56972 37.3467 1.31765 37.3409 1.06721 37.316C0.482194 37.2227 0.0479573 36.8756 0.0449421 36.3097C0.0238332 34.3673 -0.0847266 32.4073 0.138424 30.4764C0.439981 27.8514 2.05933 26.0636 4.54716 25.0019L5.08091 24.7918C4.22449 23.6836 3.67567 22.5081 3.64852 21.1518C3.61318 19.8897 4.00454 18.6509 4.76321 17.6233C5.52186 16.5959 6.6064 15.8358 7.8522 15.4585C8.06518 15.4251 8.26215 15.3285 8.41607 15.1823C8.56999 15.036 8.67323 14.8473 8.71162 14.6419C9.29969 12.3697 10.7592 10.7918 12.9787 9.85561C13.1354 9.79142 13.2802 9.72147 13.5274 9.61937C12.258 8.00062 11.7543 6.23895 12.3213 4.27603C12.6857 2.97237 13.5159 1.83572 14.6643 1.0677C15.8021 0.290754 17.1836 -0.0796594 18.5726 0.0198328C19.9615 0.119324 21.2716 0.682539 22.2786 1.61312C24.5523 3.71603 24.7332 6.57145 22.7219 9.64565C24.2778 10.1557 25.6206 11.1402 26.5487 12.4514C27.5002 11.1332 28.8619 10.143 30.4357 9.62523C29.1661 8.03854 28.6595 6.3177 29.1631 4.40145C29.4975 3.09055 30.3022 1.93704 31.4338 1.14645C32.553 0.341575 33.9271 -0.0611344 35.3199 0.0075283C36.7128 0.0761912 38.0374 0.611938 39.0662 1.5227C41.4093 3.59645 41.6234 6.46062 39.615 9.65435C41.1696 10.1608 42.511 11.1439 43.4357 12.4544C44.363 11.1567 45.694 10.1789 47.2353 9.66314C45.2571 5.90645 45.5586 3.23187 48.1399 1.26896C49.2401 0.419985 50.6134 -0.0284275 52.0205 0.00195673C53.4275 0.0323406 54.7788 0.539591 55.8387 1.4352C58.2511 3.47687 58.5014 6.29728 56.5202 9.62816C56.7463 9.72732 56.9695 9.82063 57.1897 9.91979C58.2165 10.3592 59.1256 11.0204 59.847 11.8527C60.5683 12.6849 61.0829 13.666 61.351 14.7206C61.3887 14.8562 61.4557 14.9826 61.5478 15.0913C61.6398 15.1999 61.7547 15.2883 61.8849 15.3506C62.8478 15.6012 63.7314 16.0788 64.4567 16.7407C65.1821 17.4025 65.7264 18.228 66.041 19.1432C66.3556 20.0584 66.4307 21.0348 66.2595 21.9849C66.0884 22.9351 65.6763 23.8293 65.0602 24.5877C65.0208 24.6558 64.9876 24.7271 64.9607 24.8006C65.1808 24.8939 65.401 24.9815 65.6151 25.0923C68.3894 26.3697 69.873 28.4902 69.9816 31.4623C70.0329 32.941 69.9966 34.4256 69.9816 35.9102C69.9816 36.9427 69.5504 37.3452 68.4557 37.3482H57.9767H57.9284L56.5865 39.9731C56.7071 40.0286 56.888 40.116 57.0569 40.1918C59.3005 41.1369 60.7028 42.7731 61.3571 45.0482C61.3942 45.1836 61.4611 45.3098 61.5532 45.418C61.6454 45.5262 61.7605 45.614 61.8908 45.6752C62.8533 45.927 63.7362 46.4057 64.4605 47.0684C65.1848 47.731 65.7279 48.557 66.0414 49.4725C66.3547 50.388 66.4287 51.3643 66.2564 52.3141C66.0841 53.2639 65.671 54.1576 65.0541 54.9152C65.0271 54.9531 65.015 55.0027 64.9547 55.1282C65.1748 55.2215 65.395 55.309 65.6091 55.4052C68.3833 56.6827 69.8851 58.8031 69.9696 61.7752C70.0358 64.0327 69.9876 66.2931 69.9696 68.5535C69.9696 69.5889 69.5383 69.9944 68.4436 69.9944H1.51955C0.446012 69.9944 0.0298644 69.5802 0.0268484 68.536C0.0268484 66.3718 0.00875551 64.2077 0.0268484 62.0465C0.0600198 58.8381 1.62207 56.6156 4.63461 55.3148C4.74618 55.2652 4.85776 55.2156 4.96933 55.1602C4.98743 55.1602 4.99044 55.1194 4.95124 55.204C4.54414 54.2939 4.04658 53.4889 3.82342 52.6169C3.46708 51.1945 3.68805 49.6941 4.44084 48.4244C5.19365 47.1549 6.42101 46.2127 7.87029 45.7918C8.08332 45.7554 8.27952 45.6562 8.43228 45.5081C8.58496 45.3599 8.68668 45.1697 8.72374 44.9636C9.30869 42.6944 10.7683 41.1252 12.9787 40.1861L13.3857 40.0082L13.419 39.9673C12.9787 39.1097 12.5384 38.2581 12.074 37.3335ZM67.5601 67.6318C67.5601 67.451 67.5812 67.3548 67.5812 67.2585C67.5812 65.4385 67.6053 63.6185 67.5812 61.7985C67.5796 61.1883 67.4537 60.5843 67.2106 60.0212C66.9675 59.458 66.612 58.9468 66.1645 58.5166C65.7169 58.0864 65.1861 57.7458 64.6023 57.5142C64.0186 57.2826 63.3934 57.1646 62.7623 57.1669C61.1551 57.1465 59.5508 57.1493 57.9375 57.1669C57.303 57.1642 56.6744 57.283 56.0878 57.5166C55.5012 57.7502 54.9681 58.0938 54.5195 58.5277C54.071 58.9616 53.7157 59.4771 53.4742 60.0445C53.2327 60.6119 53.1098 61.2199 53.1126 61.8335C53.0915 63.6069 53.1126 65.3773 53.1126 67.1506C53.1219 67.3092 53.1421 67.4671 53.1729 67.6231L67.5601 67.6318ZM50.6941 67.6318C50.6941 65.6544 50.7153 63.7381 50.6941 61.8248C50.6957 61.2102 50.5713 60.6014 50.328 60.0337C50.0846 59.4659 49.7272 58.9505 49.2765 58.5173C48.8258 58.0841 48.2907 57.7416 47.7022 57.5099C47.1137 57.278 46.4836 57.1615 45.8481 57.1669C44.265 57.1493 42.6848 57.1523 41.1047 57.1669C38.6561 57.1873 36.5813 58.7419 36.3401 61.084C36.123 63.2364 36.2949 65.4269 36.2949 67.6318H50.6941ZM19.3414 67.6173H33.786C33.786 65.5086 33.8794 63.4436 33.7618 61.3902C33.673 60.2624 33.1536 59.2069 32.3048 58.4291C31.4559 57.6511 30.3383 57.2065 29.1691 57.1815C27.4382 57.1377 25.7042 57.1406 23.9764 57.1815C22.7944 57.2074 21.6653 57.6604 20.8114 58.4512C19.9575 59.242 19.4406 60.3134 19.3626 61.4544C19.2691 63.4844 19.3414 65.5261 19.3414 67.6173ZM16.8988 67.6377C16.8988 65.5085 16.9924 63.4436 16.8747 61.3902C16.739 59.0394 14.6462 57.2223 12.2066 57.1756C10.528 57.1465 8.8463 57.1465 7.16164 57.1756C6.07162 57.1833 5.01829 57.5574 4.18206 58.2337C3.34584 58.91 2.77877 59.8465 2.57801 60.8827C2.45906 61.7233 2.41568 62.5724 2.44833 63.4202C2.42723 64.8173 2.44833 66.2173 2.44833 67.6377H16.8988ZM67.5601 34.971C67.5601 33.5973 67.6536 32.2819 67.539 30.984C67.4369 29.8943 66.9323 28.8767 66.1176 28.1177C65.3029 27.3587 64.2327 26.909 63.1031 26.851C61.2727 26.7781 59.4362 26.784 57.6058 26.851C55.4677 26.9269 53.4685 28.671 53.3388 30.4882C55.7241 31.1473 57.2138 32.6815 57.844 34.9739L67.5601 34.971ZM12.1886 35.0002C12.8279 32.6144 14.3839 31.1385 16.7451 30.4619C16.527 29.4586 15.9667 28.5554 15.154 27.8973C14.3412 27.2393 13.3234 26.8646 12.2639 26.8335C10.5572 26.7985 8.84737 26.8044 7.13752 26.8335C6.15095 26.8497 5.19451 27.1649 4.40301 27.7348C3.6115 28.3046 3.02486 29.1003 2.72576 30.0097C2.18297 31.6373 2.55087 33.3114 2.45437 34.9973H12.1886V35.0002ZM20.6321 19.8335C21.2714 17.4506 22.8304 15.9777 25.1916 15.3097C24.6458 13.2097 22.8878 11.7573 20.7739 11.7019C18.9916 11.6552 17.2094 11.6523 15.4303 11.7019C14.3878 11.7449 13.3904 12.1249 12.5976 12.7811C11.8048 13.4374 11.2626 14.3319 11.0578 15.3215C13.4702 15.9777 14.9779 17.5148 15.6142 19.8306L20.6321 19.8335ZM27.9328 15.304C30.3693 15.9836 31.8711 17.5061 32.5013 19.8044H37.5222C38.1585 17.4535 39.6995 15.9689 42.0666 15.301C41.8545 14.3006 41.2991 13.3989 40.4906 12.7418C39.6823 12.0848 38.6682 11.7112 37.6126 11.6815C35.8848 11.6406 34.1508 11.6436 32.4199 11.6815C31.361 11.7135 30.3438 12.0877 29.5304 12.7443C28.7171 13.4008 28.1546 14.302 27.9328 15.304ZM54.4153 19.8073C55.0335 17.4331 56.6227 15.9661 58.9839 15.2777C58.3385 13.1252 56.6619 11.7457 54.5932 11.6873C52.7839 11.6348 50.9746 11.6289 49.1653 11.6873C47.0363 11.7573 45.1063 13.4373 44.8681 15.3156C47.2474 15.9777 48.7521 17.4944 49.3914 19.8044L54.4153 19.8073ZM54.4153 50.1406C55.0516 47.8073 56.5774 46.3082 58.9386 45.6431C58.7385 44.6558 58.2014 43.7621 57.4134 43.1053C56.6255 42.4485 55.6324 42.0665 54.5932 42.0206C52.7839 41.9652 50.9746 41.9623 49.1653 42.0206C47.0363 42.0906 45.1154 43.7473 44.8621 45.6489C47.2413 46.3082 48.7491 47.8248 49.3854 50.161H53.8575C54.0414 50.1669 54.2162 50.1493 54.4093 50.1377L54.4153 50.1406ZM42.1028 45.6314C41.4997 43.511 39.808 42.0906 37.7273 42.0236C35.9179 41.9691 34.1086 41.9691 32.2992 42.0236C31.2612 42.0684 30.2689 42.4503 29.4827 43.1075C28.6965 43.7647 28.1622 44.659 27.9659 45.6461C30.3452 46.3052 31.8621 47.8131 32.4892 50.1436H37.5192C38.1404 47.8073 39.6753 46.3169 42.0968 45.6286L42.1028 45.6314ZM11.0789 45.6461C13.4551 46.3082 14.9779 47.8073 15.6022 50.1289H20.6472C21.2804 47.7548 22.8485 46.2964 25.2037 45.6257C24.6277 43.5257 22.9209 42.0935 20.8432 42.0236C19.0339 41.9652 17.2245 41.9652 15.4152 42.0236C14.3767 42.0689 13.384 42.4504 12.5966 43.1068C11.8091 43.7632 11.2725 44.6564 11.0728 45.6431L11.0789 45.6461ZM36.3823 30.421C39.3707 31.7131 39.8321 32.171 40.987 34.9798H45.7125C46.394 33.9385 46.8674 32.8857 47.6454 32.1215C48.4235 31.3573 49.506 30.8848 50.4891 30.2636C49.9071 28.2015 48.1218 26.8569 45.7939 26.8394C44.2378 26.8394 42.6818 26.8394 41.1258 26.8394C38.7888 26.8539 37.0066 28.1956 36.3763 30.4181L36.3823 30.421ZM33.6261 30.4735C33.426 29.4948 32.8948 28.6084 32.1162 27.954C31.3376 27.2997 30.3559 26.9147 29.3259 26.8598C27.4955 26.7927 25.6591 26.7956 23.8316 26.8598C21.6996 26.9327 19.7515 28.6098 19.5435 30.491C21.9258 31.1502 23.4275 32.6727 24.0669 34.9769H29.0786C29.7149 32.6261 31.2498 31.1356 33.6201 30.4706L33.6261 30.4735ZM31.4006 36.1057C31.3881 36.7997 31.5892 37.4817 31.9785 38.065C32.3677 38.6482 32.9275 39.1063 33.5866 39.381C34.2458 39.6558 34.9745 39.7348 35.6801 39.6079C36.3857 39.481 37.0364 39.154 37.5495 38.6686C38.0625 38.1831 38.4147 37.561 38.5612 36.8814C38.7077 36.2018 38.642 35.4954 38.3724 34.8521C38.1028 34.2087 37.6415 33.6574 37.0471 33.2683C36.4527 32.8793 35.7521 32.6698 35.0344 32.6669C34.0824 32.6613 33.1665 33.0189 32.4852 33.662C31.8039 34.3051 31.4121 35.1821 31.3946 36.1027L31.4006 36.1057ZM21.7509 36.1523C21.7479 35.4618 21.5338 34.7876 21.1356 34.2145C20.7373 33.6415 20.1727 33.1951 19.5128 32.9317C18.8529 32.6683 18.1272 32.5995 17.427 32.7341C16.7267 32.8687 16.0834 33.2005 15.5777 33.688C15.0721 34.1755 14.7268 34.7966 14.5853 35.4735C14.4438 36.1503 14.5125 36.8524 14.7827 37.4915C15.0529 38.1307 15.5125 38.6782 16.1037 39.0653C16.6949 39.4524 17.3912 39.6616 18.1051 39.6669C18.5818 39.6669 19.0538 39.5758 19.494 39.3988C19.9343 39.2218 20.334 38.9624 20.6703 38.6356C21.0065 38.3087 21.2727 37.9208 21.4535 37.4941C21.6343 37.0675 21.7262 36.6104 21.7237 36.1493L21.7509 36.1523ZM51.8793 32.6669C51.1636 32.6669 50.4639 32.8721 49.8688 33.2567C49.2738 33.6413 48.8099 34.188 48.536 34.8275C48.2621 35.467 48.1905 36.1708 48.3301 36.8497C48.4698 37.5287 48.8144 38.1522 49.3204 38.6418C49.8266 39.1312 50.4714 39.4645 51.1733 39.5996C51.8752 39.7347 52.6028 39.6654 53.264 39.4004C53.9252 39.1355 54.4904 38.6869 54.8881 38.1114C55.2857 37.5358 55.4979 36.8591 55.4979 36.1669C55.4979 35.2386 55.1166 34.3484 54.438 33.692C53.7594 33.0356 52.839 32.6669 51.8793 32.6669ZM60.3228 24.5002C61.0371 24.5047 61.7369 24.3046 62.334 23.9251C62.931 23.5456 63.3985 23.0037 63.6776 22.3676C63.9567 21.7316 64.0349 21.0298 63.9023 20.3509C63.7698 19.6719 63.4325 19.0461 62.9327 18.5522C62.433 18.0584 61.7934 17.7187 61.0944 17.5759C60.3955 17.433 59.6684 17.4935 59.005 17.7497C58.3415 18.0058 57.7712 18.4463 57.366 19.0153C56.9609 19.5844 56.739 20.2568 56.7282 20.9477C56.7194 21.8794 57.0927 22.7764 57.7665 23.4423C58.4404 24.1083 59.3595 24.4887 60.3228 24.5002ZM43.484 17.5002C42.7693 17.4911 42.0678 17.6869 41.468 18.063C40.8682 18.439 40.397 18.9784 40.1139 19.6132C39.8307 20.2479 39.7482 20.9496 39.8767 21.6297C40.0054 22.3097 40.3393 22.9376 40.8365 23.4343C41.3336 23.9311 41.9718 24.2742 42.6703 24.4206C43.3689 24.5669 44.0966 24.5099 44.7617 24.2567C45.4268 24.0035 45.9995 23.5655 46.4075 22.9979C46.8155 22.4303 47.0406 21.7585 47.0544 21.0673C47.0635 20.606 46.9783 20.1474 46.8036 19.7181C46.6289 19.2887 46.3681 18.8969 46.0363 18.5654C45.7044 18.2339 45.3082 17.9691 44.8701 17.7863C44.432 17.6035 43.961 17.5062 43.484 17.5002ZM30.1673 20.9827C30.1637 20.2913 29.9485 19.6162 29.5486 19.043C29.1488 18.4697 28.5825 18.0239 27.9209 17.7616C27.2594 17.4994 26.5324 17.4326 25.8316 17.5696C25.1309 17.7066 24.4877 18.0413 23.9835 18.5315C23.4792 19.0217 23.1364 19.6454 22.9982 20.3238C22.8601 21.0023 22.9328 21.7051 23.2072 22.3436C23.4815 22.9821 23.9454 23.5277 24.5401 23.9115C25.1348 24.2953 25.8337 24.5002 26.5487 24.5002C27.5102 24.4963 28.4311 24.124 29.1094 23.4646C29.7877 22.8053 30.1681 21.9128 30.1673 20.9827ZM13.2802 51.316C13.2766 50.6246 13.0613 49.9496 12.6616 49.3764C12.2618 48.8031 11.6954 48.3572 11.0338 48.095C10.3723 47.8327 9.6453 47.7659 8.94455 47.903C8.24378 48.0399 7.6007 48.3746 7.09643 48.8649C6.59216 49.355 6.2493 49.9787 6.11114 50.6571C5.97297 51.3356 6.04568 52.0384 6.32009 52.6769C6.5945 53.3155 7.05832 53.8611 7.653 54.2449C8.24769 54.6287 8.9466 54.8335 9.66151 54.8335C10.6237 54.8296 11.545 54.4569 12.2234 53.7969C12.9017 53.137 13.2818 52.2437 13.2802 51.3131V51.316ZM30.1673 51.316C30.1637 50.6246 29.9485 49.9496 29.5486 49.3764C29.1488 48.8031 28.5825 48.3572 27.9209 48.095C27.2594 47.8327 26.5324 47.7659 25.8316 47.903C25.1309 48.0399 24.4877 48.3746 23.9835 48.8649C23.4792 49.355 23.1364 49.9787 22.9982 50.6571C22.8601 51.3356 22.9328 52.0384 23.2072 52.6769C23.4815 53.3155 23.9454 53.8611 24.5401 54.2449C25.1348 54.6287 25.8337 54.8335 26.5487 54.8335C27.0256 54.8335 27.4979 54.7424 27.9383 54.5651C28.3787 54.388 28.7786 54.1283 29.1149 53.8012C29.4512 53.474 29.7173 53.0858 29.8979 52.6588C30.0785 52.2318 30.1701 51.7745 30.1673 51.3131V51.316ZM47.0544 51.316C47.0508 50.6246 46.8355 49.9496 46.4357 49.3764C46.036 48.8031 45.4696 48.3572 44.808 48.095C44.1464 47.8327 43.4195 47.7659 42.7188 47.903C42.018 48.0399 41.3749 48.3746 40.8706 48.8649C40.3663 49.355 40.0234 49.9787 39.8853 50.6571C39.7471 51.3356 39.8198 52.0384 40.0943 52.6769C40.3687 53.3155 40.8325 53.8611 41.4272 54.2449C42.0218 54.6287 42.7208 54.8335 43.4357 54.8335C44.3942 54.8297 45.3123 54.4597 45.9901 53.8041C46.6679 53.1486 47.0504 52.2606 47.0544 51.3335V51.316ZM60.3228 47.8335C59.6082 47.8335 58.9097 48.0382 58.3152 48.4216C57.7207 48.8051 57.2569 49.3502 56.9823 49.9881C56.7076 50.6262 56.6344 51.3285 56.7718 52.0067C56.9092 52.6849 57.2512 53.3086 57.7546 53.7992C58.2579 54.2896 58.9002 54.625 59.6004 54.763C60.3005 54.9011 61.0272 54.8355 61.6889 54.5746C62.3506 54.3137 62.9176 53.8692 63.3184 53.297C63.7193 52.725 63.9361 52.0509 63.9414 51.3598C63.945 50.8979 63.854 50.44 63.6738 50.0123C63.4936 49.5847 63.2276 49.1957 62.8912 48.868C62.5548 48.5401 62.1547 48.28 61.7138 48.1025C61.2731 47.9249 60.8003 47.8335 60.3228 47.8335ZM13.2802 21.0002C13.2802 20.3068 13.0672 19.6289 12.6681 19.0527C12.2692 18.4765 11.7023 18.028 11.0393 17.7639C10.3763 17.4999 9.64717 17.4323 8.94437 17.5697C8.24164 17.7072 7.59693 18.0434 7.09207 18.5359C6.58722 19.0282 6.24497 19.6546 6.10877 20.3354C5.97256 21.0163 6.04855 21.7209 6.32706 22.3599C6.60557 22.999 7.07408 23.5436 7.67312 23.9246C8.27213 24.3056 8.97475 24.506 9.69171 24.5002C10.6447 24.488 11.5547 24.1144 12.2258 23.4598C12.8969 22.8053 13.2755 21.9221 13.2802 21.0002ZM55.4979 5.81603C55.4943 5.12456 55.2791 4.44959 54.8792 3.87633C54.4795 3.30306 53.9131 2.85718 53.2516 2.59496C52.59 2.33273 51.863 2.26592 51.1622 2.40294C50.4615 2.53995 49.8184 2.87466 49.3141 3.36484C48.8099 3.85502 48.467 4.47868 48.3289 5.15713C48.1907 5.83558 48.2634 6.53842 48.5378 7.17694C48.8122 7.81546 49.276 8.36105 49.8707 8.74491C50.4654 9.12873 51.1643 9.33351 51.8793 9.33351C52.356 9.33351 52.828 9.24245 53.2682 9.06549C53.7084 8.88844 54.1082 8.62912 54.4445 8.30223C54.7807 7.97537 55.0469 7.58746 55.2277 7.1608C55.4084 6.73414 55.5003 6.27713 55.4979 5.81603ZM38.6108 5.83353C38.6108 5.14006 38.3978 4.46223 37.9988 3.88604C37.5998 3.30985 37.0328 2.86128 36.3699 2.59726C35.7069 2.33323 34.9778 2.26564 34.275 2.40308C33.5723 2.5405 32.9276 2.87675 32.4227 3.36916C31.9178 3.86157 31.5756 4.48793 31.4394 5.16878C31.3032 5.84962 31.3792 6.55425 31.6577 7.19326C31.9362 7.83227 32.4047 8.37685 33.0037 8.75792C33.6028 9.13898 34.3054 9.33929 35.0223 9.33351C35.9756 9.32206 36.886 8.94875 37.5573 8.29399C38.2286 7.63927 38.607 6.7556 38.6108 5.83353ZM21.7237 5.80728C21.7184 5.11619 21.5016 4.4421 21.1008 3.86999C20.6998 3.29789 20.1329 2.85337 19.4711 2.59248C18.8095 2.33159 18.0828 2.26602 17.3826 2.40401C16.6825 2.54202 16.0402 2.87741 15.5369 3.36792C15.0335 3.85844 14.6916 4.48211 14.5541 5.16032C14.4167 5.83852 14.4899 6.54091 14.7645 7.17892C15.0392 7.81693 15.503 8.36202 16.0975 8.74543C16.692 9.1289 17.3905 9.33351 18.1051 9.33351C18.5818 9.33351 19.0538 9.24245 19.494 9.06549C19.9343 8.88844 20.334 8.62912 20.6703 8.30223C21.0065 7.97537 21.2727 7.58746 21.4535 7.1608C21.6343 6.73414 21.7262 6.27713 21.7237 5.81603V5.80728ZM34.9921 27.6152C35.9032 26.3185 37.2234 25.3414 38.7555 24.8297C38.2731 23.8994 37.8509 23.0623 37.3835 22.1815H32.6129L31.2378 24.8327C32.7711 25.3513 34.0935 26.3291 35.0133 27.624L34.9921 27.6152ZM14.3356 24.8356C15.8307 25.3273 17.1247 26.2673 18.0297 27.519C18.5958 26.9462 19.1948 26.4048 19.824 25.8973C20.469 25.4808 21.1396 25.1029 21.8323 24.7657L20.5175 22.199H15.6927L14.3356 24.8356ZM54.2917 22.1902H49.5C49.0325 23.0944 48.5953 23.9402 48.1249 24.8415C49.6224 25.3391 50.9208 26.2786 51.8371 27.5277C52.4071 26.9472 53.0112 26.399 53.6463 25.8857C54.2826 25.4746 54.9443 25.1016 55.6276 24.7685L54.2917 22.1902ZM28.9611 37.3569H24.1694L22.7942 40.011C24.3301 40.5189 25.6546 41.4941 26.5698 42.7906C27.4821 41.495 28.8017 40.5183 30.3332 40.0052L28.9611 37.3569ZM39.6843 40.011C41.1829 40.5023 42.4803 41.4433 43.3874 42.6973C43.9576 42.116 44.5617 41.5668 45.1968 41.0523C45.8314 40.6402 46.492 40.2671 47.175 39.9352L45.8481 37.3569H41.0534L39.6843 40.011ZM20.5175 52.5236H15.7228L14.3507 55.1748C15.8814 55.6917 17.2047 56.6623 18.1323 57.9485C19.0448 56.657 20.3619 55.6827 21.8896 55.1689L20.5175 52.5236ZM31.2408 55.1806C32.772 55.6922 34.0952 56.6615 35.0193 57.9485C35.9329 56.6583 37.248 55.6837 38.7736 55.1661L37.4076 52.541H32.6069L31.2408 55.1806ZM51.8943 57.9602C52.8066 56.6609 54.1305 55.6834 55.6667 55.1748L54.2978 52.5497H49.4728L48.1128 55.1748C49.6499 55.6863 50.9759 56.6629 51.8943 57.9602Z" fill="white"/>
<path d="M61.4898 61.8044H59.1738V59.5352H61.4898V61.8044Z" fill="white"/>
<path d="M44.6118 61.8337H42.3049V59.5674H44.6118V61.8337Z" fill="white"/>
<path d="M27.7336 59.5411V61.7781H25.4087V59.5411H27.7336Z" fill="white"/>
<path d="M8.50635 59.5266H10.8373V61.7927H8.50635V59.5266Z" fill="white"/>
</svg>
