<svg width="70" height="70" viewBox="0 0 70 70" fill="none" xmlns="http://www.w3.org/2000/svg">
<mask id="mask0_25_55" style="mask-type:luminance" maskUnits="userSpaceOnUse" x="0" y="0" width="70" height="70">
<path d="M70 0H0V70H70V0Z" fill="white"/>
</mask>
<g mask="url(#mask0_25_55)">
<path d="M7.12644 58.0863C7.23039 57.7667 7.22606 57.425 7.11406 57.1077C7.00206 56.7906 6.78788 56.5136 6.50089 56.3148C5.86758 55.81 5.36111 55.1808 5.01753 54.472C4.67396 53.7633 4.50175 52.9924 4.51317 52.2142C4.48686 50.5958 4.47224 48.9775 4.51317 47.3619C4.57455 44.8878 6.5272 43.0453 9.19012 42.925C9.98818 42.8867 10.7891 42.925 11.6398 42.925V27.5504C11.0901 27.5504 10.5377 27.5504 9.98228 27.5504C8.31907 27.5149 7.40998 26.6839 7.35152 25.1393C7.33005 24.7078 7.34667 24.2753 7.40121 23.8463C7.45141 23.3064 7.71842 22.8043 8.14851 22.4412C8.57862 22.0779 9.13983 21.8807 9.71927 21.8889C11.058 21.8615 12.3939 21.8889 13.8496 21.8889C13.8496 20.995 13.8496 20.1366 13.8496 19.281C13.8993 16.878 15.0393 15.0682 17.3749 14.054C18.2782 13.6631 19.3275 13.5729 20.3974 13.3241C20.5202 12.9578 20.4179 12.6188 19.9677 12.2689C19.3489 11.8016 18.8492 11.2112 18.5049 10.5407C18.1605 9.87012 17.9803 9.13626 17.977 8.39246C17.9361 6.70848 17.942 5.02177 17.977 3.33779C17.9672 2.90188 18.0513 2.46856 18.2244 2.0637C18.3974 1.65884 18.6559 1.2907 18.9843 0.981248C19.3127 0.671799 19.7044 0.427363 20.136 0.262519C20.5676 0.097675 21.0303 0.0157961 21.4965 0.0217657C22.9083 -0.000103636 24.3202 -0.000103632 25.7233 0.019032C27.6584 0.0491031 29.1317 1.12892 29.2545 2.90859C29.3752 4.99767 29.3674 7.09153 29.2311 9.17977C29.1668 10.3526 28.4828 11.3503 27.5327 12.1104C27.311 12.2628 27.1488 12.479 27.0713 12.7259C26.9936 12.9729 27.0047 13.2368 27.103 13.4772C29.2924 13.5565 31.0463 14.4258 32.2653 16.1781C33.4842 17.9305 33.1422 19.8605 33.1919 21.9053C33.2959 21.7768 33.3869 21.6395 33.4637 21.4953C34.0484 19.7347 34.633 17.9742 35.1591 16.2028C35.1864 16.0572 35.181 15.9079 35.1433 15.7643C35.1055 15.6207 35.0362 15.4861 34.9399 15.369C33.6683 13.931 32.3559 12.5231 31.058 11.1044C30.6926 10.708 30.4734 10.224 30.8739 9.80852C31.1764 9.54385 31.5637 9.37964 31.9759 9.34105C32.1951 9.31098 32.5138 9.54334 32.695 9.73744C34.2326 11.3777 35.7496 13.0452 37.2755 14.7019C37.6906 15.153 37.6701 15.6478 37.4977 16.1781C36.8809 18.0425 36.2817 19.9151 35.6619 21.8698C36.8721 21.9463 38.1934 21.621 38.9972 22.6899C39.3326 23.1837 39.5333 23.7469 39.5818 24.3301C39.6987 25.3854 39.7338 26.5964 38.5617 27.1158C37.6029 27.5423 36.4337 27.5587 35.2966 27.7692V42.9195C35.7437 42.9195 36.1735 42.9059 36.5974 42.9195C37.4268 42.9329 38.2376 43.1524 38.9465 43.5554C39.6553 43.9584 40.2367 44.5306 40.6312 45.2131C40.8505 45.5631 41.0142 45.6915 41.4731 45.5794C42.1336 45.4485 42.8024 45.3571 43.4754 45.3061C43.5748 44.7211 43.6537 44.1961 42.9814 43.6822C42.3539 43.2229 41.8412 42.641 41.4792 41.9771C41.1172 41.3132 40.9146 40.5834 40.8856 39.8386C40.8037 38.089 40.754 36.3312 40.8388 34.5816C40.9616 32.0748 42.733 30.399 45.3988 30.1776C46.4685 30.0953 47.543 30.0843 48.6143 30.1448C51.4146 30.2842 53.2737 32.001 53.3995 34.6336C53.4813 36.3394 53.4287 38.0508 53.3644 39.7566C53.3479 40.4906 53.162 41.2125 52.8194 41.8732C52.4769 42.5337 51.9857 43.1172 51.3796 43.5838C51.0958 43.7742 50.8836 44.0433 50.7729 44.353C50.6621 44.6627 50.6585 44.9971 50.7627 45.3088L53.2679 45.6095L53.5222 45.2186C54.4518 43.7998 55.773 42.966 57.5766 42.9113C58.6961 42.8757 59.8186 42.8703 60.9353 42.9113C62.1452 42.9593 63.2896 43.4382 64.1342 44.25C64.9788 45.0616 65.4595 46.1447 65.4778 47.2771C65.4953 49.2317 65.4778 51.1918 65.3433 53.141C65.2797 53.7706 65.077 54.381 64.7478 54.9334C64.4188 55.4859 63.9705 55.9684 63.4316 56.3504C62.7972 56.8342 62.6833 57.3482 62.8323 58.0453C63.5197 58.0975 64.203 58.1888 64.8785 58.3186C68.0238 59.1196 69.918 61.4488 69.9764 64.5379C69.994 65.492 69.9764 66.4515 69.9764 67.4056C69.9619 69.0458 68.9738 69.9835 67.2024 69.9835H3.06331C0.876809 69.9999 -0.0352038 69.1633 -0.000126329 67.1541C0.026182 65.7243 -0.0790503 64.2427 0.257112 62.8758C0.946961 60.0354 3.27669 58.3843 6.51843 58.1245C6.72305 58.1082 6.90136 58.1 7.12644 58.0863ZM52.9084 47.7336C52.4407 47.638 52.0314 47.5286 51.5929 47.4602C50.9615 47.3837 50.4587 47.4248 49.9589 48.007C48.9387 49.1852 45.4194 49.1388 44.2822 48.0453C44.2426 48.0189 44.2088 47.9854 44.1828 47.9468C43.949 47.4247 43.4871 47.381 42.9785 47.4439C42.5927 47.4903 42.2097 47.5505 41.8268 47.6106C41.4439 47.6707 41.2743 47.8839 41.2831 48.2667C41.3065 49.4504 41.2831 50.6368 41.2831 51.8206C41.2831 53.6467 40.6488 55.2432 39.1346 56.4159C38.471 56.9299 38.5208 57.452 38.6377 58.0562L40.0612 58.2038C43.1773 58.5291 45.8227 61.3449 45.735 64.2809C45.7286 64.4455 45.6861 64.6071 45.6101 64.7557C45.5342 64.9042 45.4265 65.0368 45.2936 65.1448C45.0013 65.3143 44.443 65.4045 44.2325 65.2487C43.8766 64.9713 43.6399 64.5829 43.566 64.1551C43.2737 61.7467 41.3767 60.1256 38.7897 60.1858C38.5176 60.2078 38.2652 60.3273 38.0852 60.5193C36.9159 61.8534 33.3293 61.9983 32.0899 60.7353C31.9905 60.6369 31.932 60.4947 31.821 60.4155C31.6871 60.2991 31.5227 60.218 31.3444 60.1803C30.749 60.1314 30.149 60.1937 29.5794 60.3637C29.0099 60.5337 28.4822 60.8079 28.0271 61.1704C27.5719 61.533 27.1986 61.9766 26.9285 62.4754C26.6585 62.9741 26.4972 63.5183 26.4541 64.0759C26.3927 65.1912 26.4161 66.3093 26.4395 67.4247C26.4395 67.5915 26.65 67.8949 26.7756 67.9004C27.6526 67.9414 28.5062 67.9223 29.4065 67.9223C29.4065 67.3454 29.4065 66.867 29.4065 66.3913C29.4386 65.5712 29.8508 65.1448 30.5435 65.1557C31.2363 65.1667 31.5958 65.5876 31.628 66.3668C31.6484 66.8616 31.628 67.3564 31.628 67.8921H38.398C38.398 67.3454 38.398 66.8206 38.398 66.3039C38.4184 65.5904 38.8131 65.1721 39.459 65.153C40.1051 65.1338 40.5699 65.5767 40.5962 66.3121C40.6137 66.8287 40.5962 67.3482 40.5962 67.8921H48.3746C48.3746 66.7987 48.3746 65.7216 48.3746 64.6582C48.4184 61.4733 50.3097 59.1169 53.5017 58.3214C54.2471 58.1784 55.0005 58.0753 55.7583 58.0125C55.5801 57.5122 55.5625 56.919 55.241 56.6592C54.4798 56.0676 53.8717 55.3225 53.4621 54.4798C53.0525 53.637 52.8523 52.7186 52.8762 51.7933C52.9084 50.4783 52.9084 49.1607 52.9084 47.7336ZM33.0311 27.5504H32.0928C28.5149 27.5504 24.935 27.5504 21.3532 27.5504C21.0599 27.5567 20.7665 27.5393 20.4763 27.4985C19.9209 27.4056 19.5497 27.0283 19.6345 26.5527C19.7499 26.1595 20.011 25.8175 20.3711 25.5877C20.6049 25.4264 21.0259 25.4756 21.3621 25.4756C26.4502 25.4756 31.5394 25.4756 36.6295 25.4756C36.875 25.4756 37.2405 25.4455 37.3457 25.3006C37.4389 25.1663 37.4908 25.0106 37.496 24.8506C37.5012 24.6906 37.4593 24.5323 37.3748 24.393C37.2904 24.2537 37.1667 24.1387 37.0172 24.0607C36.8677 23.9825 36.6982 23.9444 36.5272 23.9502H10.4412C10.3185 23.9502 10.1665 23.9064 10.0817 23.9502C9.89753 24.0622 9.64033 24.2016 9.60523 24.3657C9.55963 24.7286 9.5518 25.0948 9.58183 25.4591H10.5027C11.9642 25.4591 13.4257 25.4591 14.8873 25.4591C15.9133 25.4591 16.46 25.8364 16.4512 26.5144C16.4425 27.1924 15.9222 27.5286 14.8669 27.5368C14.5599 27.5368 14.2501 27.5368 13.9753 27.5368C13.9525 27.5908 13.9349 27.6466 13.9227 27.7035C13.9227 32.7354 13.9227 37.7673 13.9227 42.7992C13.9367 42.9024 13.9756 43.0013 14.0364 43.0884C14.0971 43.1755 14.1782 43.2486 14.2734 43.3022C15.2712 43.7448 16.0821 44.4867 16.5769 45.41C16.6217 45.4804 16.6838 45.5399 16.758 45.5836C16.8321 45.6273 16.9163 45.654 17.0037 45.6614C17.8631 45.5521 18.7137 45.3881 19.5672 45.265C19.6462 44.2508 19.6462 44.2536 18.889 43.5757C17.7754 42.5778 17.0329 41.3723 16.9656 39.9288C16.8809 38.0644 16.8634 36.1945 16.9656 34.3329C17.0132 33.268 17.4807 32.2571 18.2779 31.4954C19.0751 30.7337 20.1457 30.275 21.2831 30.2077C22.3708 30.1201 23.4637 30.1019 24.5541 30.153C27.4334 30.2979 29.2311 31.8835 29.4269 34.5434C29.5221 36.2736 29.5221 38.0073 29.4269 39.7374C29.4097 40.4937 29.2148 41.237 28.8561 41.915C28.4975 42.5929 27.9838 43.1887 27.3515 43.6603C26.6851 44.1661 26.7201 44.691 26.7844 45.3279C27.4012 45.3936 27.98 45.4318 28.5383 45.5275C28.9271 45.5959 29.1025 45.4701 29.3597 45.1858C29.9245 44.5442 30.568 43.9671 31.2773 43.4662C31.7625 43.1383 32.4261 43.0371 33.0136 42.8348L33.0311 27.5504ZM14.405 58.0781L15.0773 58.1245C17.6438 58.3105 19.6111 59.3794 20.8154 61.5554C21.3541 62.5572 21.6184 63.6685 21.5842 64.7894C21.5842 65.8255 21.5842 66.8616 21.5842 67.8977H24.215C24.215 66.7659 24.1975 65.6778 24.215 64.5899C24.2764 61.4269 26.153 59.1224 29.3305 58.3268C29.9978 58.1954 30.6734 58.1041 31.3533 58.0535C31.5666 57.2963 31.3182 56.8014 30.7014 56.3066C30.1286 55.859 29.6611 55.3053 29.3281 54.6806C28.995 54.0558 28.8038 53.3734 28.7663 52.6763C28.6786 51.2683 28.7225 49.855 28.6699 48.4444C28.6699 48.171 28.55 47.7172 28.3395 47.6243C27.6233 47.2826 26.5681 47.4192 26.2641 47.7801C25.1592 49.0923 21.5871 49.2645 20.3302 48.0671L20.2776 48.0179C19.9677 47.3318 19.3422 47.3947 18.74 47.4876C18.1933 47.5723 17.6613 47.72 17.0884 47.8457C17.0884 49.2563 17.0884 50.5986 17.0884 51.9463C17.0709 53.6931 16.4512 55.2268 15.0217 56.3695C14.3962 56.8615 14.2413 57.3318 14.405 58.0781ZM64.8259 67.9359C65.6648 67.9359 66.3927 67.9168 67.1177 67.9359C67.6321 67.955 67.8045 67.7583 67.7928 67.2908C67.7695 66.3585 67.8104 65.4237 67.7928 64.4914C67.711 61.9299 65.7934 60.1722 63.0867 60.1858C62.7893 60.1959 62.5081 60.3147 62.3033 60.5166C61.1516 61.8151 57.6263 61.9928 56.3635 60.79C56.2436 60.6779 56.1734 60.5166 56.0448 60.4209C55.9109 60.3027 55.7453 60.2205 55.5654 60.183C53.3088 59.9534 50.9703 61.5964 50.7365 63.6713C50.6321 64.9181 50.6009 66.1692 50.6429 67.4192C50.6624 67.5269 50.7107 67.6283 50.7833 67.7138C50.8559 67.7994 50.9503 67.8664 51.058 67.9086C51.8999 67.955 52.7447 67.9305 53.6479 67.9305V67.0447C53.6479 66.7714 53.6333 66.498 53.6479 66.2246C53.6976 65.574 54.1244 65.1585 54.7324 65.1502C55.3404 65.142 55.8139 65.5603 55.8402 66.2438C55.8577 66.7905 55.8402 67.3209 55.8402 67.884H62.6043V67.0994C62.6043 66.826 62.6043 66.5526 62.6043 66.2793C62.6599 65.5575 63.0603 65.1557 63.7005 65.1502C64.3406 65.1448 64.7674 65.5412 64.8142 66.2601C64.8522 66.7905 64.8259 67.3126 64.8259 67.9359ZM5.23226 67.9359C5.23226 67.3564 5.23226 66.8807 5.23226 66.405C5.24687 65.5849 5.65027 65.1502 6.34013 65.1585C7.02998 65.1667 7.42168 65.6314 7.43629 66.4324C7.43629 66.9217 7.43629 67.4111 7.43629 67.9387H13.7531C13.87 67.9387 13.987 67.9222 14.1857 67.9086C14.1857 67.381 14.1857 66.8889 14.1857 66.3941C14.2091 65.5986 14.633 65.1475 15.3229 65.1639C16.0127 65.1803 16.3723 65.6013 16.3927 66.375C16.3927 66.8862 16.3927 67.3974 16.3927 67.9387C17.2696 67.9387 18.0326 67.9387 18.7868 67.9387C19.2047 67.9387 19.3714 67.7692 19.3509 67.4056C19.3509 66.3121 19.3889 65.2186 19.3012 64.1251C19.1142 61.744 17.1878 60.1366 14.6242 60.1858C14.3306 60.2138 14.0591 60.3446 13.8642 60.5521C13.6259 60.8411 13.3218 61.0769 12.974 61.2424C12.6261 61.4079 12.2432 61.4989 11.8531 61.5089C11.1497 61.5308 10.4432 61.5308 9.73383 61.5089C9.33209 61.5041 8.93725 61.4104 8.58166 61.2356C8.22601 61.0608 7.91967 60.8097 7.68768 60.5029C7.54475 60.3292 7.33502 60.2145 7.10306 60.183C4.78502 59.9862 2.5956 61.5499 2.30914 63.7014C2.19261 64.9476 2.16234 66.1995 2.21853 67.4493C2.2448 67.5542 2.29946 67.6511 2.37727 67.7305C2.45507 67.81 2.55341 67.8694 2.66283 67.9031C3.48715 67.9606 4.31147 67.9332 5.23226 67.9332V67.9359ZM18.4155 21.8397C18.5529 20.9677 18.1612 19.7785 19.5234 19.7429C21.0288 19.7019 20.5465 20.995 20.7424 21.837H26.3694C26.5301 20.9977 26.0507 19.7101 27.5386 19.7402C28.9388 19.7702 28.512 21.0059 28.6611 21.8315H30.9177C30.9667 20.7976 30.9598 19.762 30.8973 18.7287C30.8138 17.8819 30.3988 17.0937 29.732 16.5155C29.0652 15.9372 28.1935 15.6098 27.2842 15.5958C27.1538 15.6056 27.0269 15.6413 26.9125 15.7007C26.798 15.7601 26.6985 15.8418 26.6207 15.9403C25.1592 18.1273 22.2828 18.1109 20.8154 15.9403C20.6949 15.7617 20.5054 15.6334 20.2864 15.5822C18.3074 15.3799 16.3898 16.7003 16.1385 18.5537C15.9923 19.6226 16.1121 20.7216 16.1121 21.8342L18.4155 21.8397ZM10.7833 44.9671C10.2483 44.9671 9.71052 44.9452 9.17842 44.9671C8.53688 44.995 7.92956 45.2459 7.4754 45.6707C7.02123 46.0954 6.75294 46.6634 6.72305 47.2634C6.68651 47.7631 6.68651 48.2646 6.72305 48.7643C6.7753 49.3098 6.95326 49.8384 7.24466 50.3135C7.53607 50.7887 7.93403 51.1992 8.41123 51.5169C8.88833 51.8345 9.43342 52.0518 10.0089 52.1538C10.5844 52.2558 11.1767 52.2401 11.745 52.1076C13.9958 51.5608 15.2352 49.5625 14.823 47.1267C14.7492 46.5199 14.4341 45.9613 13.9402 45.5617C13.4464 45.1621 12.8099 44.9508 12.1571 44.9698C11.707 44.9616 11.2451 44.9671 10.7803 44.9671H10.7833ZM63.2825 48.0097V47.6681C63.2649 45.9786 62.2243 44.9863 60.4383 44.9698C59.5117 44.9698 58.588 44.9507 57.6643 44.9698C56.4424 45.0081 55.393 45.7353 55.241 46.8616C55.1209 47.7813 55.1712 48.7135 55.39 49.6172C55.6823 50.7954 56.609 51.5308 57.8133 51.9791C60.2629 52.8812 63.452 51.211 63.2796 48.0097H63.2825ZM23.2065 32.2333C19.6432 31.96 18.9154 33.4307 19.1142 35.9239C19.1568 36.5638 19.3722 37.1831 19.7402 37.7242C20.1081 38.2651 20.6167 38.7101 21.2184 39.0175C21.8199 39.3249 22.4951 39.4847 23.1807 39.4821C23.8662 39.4793 24.5398 39.3142 25.1387 39.0021C27.0534 38.0015 27.4217 36.3476 27.2316 34.4887C27.2 33.8894 26.926 33.3237 26.4653 32.906C26.0046 32.4883 25.3915 32.2499 24.75 32.2388C24.2325 32.206 23.7181 32.2333 23.2065 32.2333ZM35.0042 44.9753C34.4693 44.9753 33.9314 44.9562 33.3994 44.9753C32.7847 44.9931 32.198 45.2196 31.7488 45.6126C31.2996 46.0055 31.0187 46.5379 30.9586 47.1104C30.9001 47.6768 30.9001 48.2471 30.9586 48.8135C31.0066 49.4891 31.2588 50.1381 31.6857 50.6849C32.1126 51.2318 32.6967 51.654 33.3702 51.9026C34.027 52.1883 34.7561 52.2964 35.4752 52.2147C36.1943 52.1331 36.8746 51.8649 37.4392 51.4406C39.0849 50.3061 39.3772 48.3405 38.851 46.5526C38.5587 45.574 37.6993 45.0546 36.6032 44.9807C36.077 44.9452 35.5391 44.9753 35.0042 44.9753ZM47.1206 32.258C43.3672 31.96 42.8324 33.6877 43.0866 36.0332C43.1533 36.721 43.4196 37.3786 43.8567 37.9353C44.2937 38.4918 44.885 38.9262 45.5668 39.1915C46.2485 39.4568 46.9947 39.5431 47.725 39.4407C48.4553 39.3384 49.1417 39.0516 49.7104 38.6111C51.1574 37.5177 51.3036 36.0332 51.172 34.4614C51.1322 33.9005 50.8789 33.3715 50.458 32.9703C50.037 32.5691 49.4762 32.3222 48.8774 32.2743C48.2927 32.2088 47.7052 32.258 47.1206 32.258ZM23.7356 6.1016C23.0077 6.1016 22.2741 6.06879 21.552 6.1016C20.6751 6.14807 20.2132 6.59639 20.1957 7.40558C20.1737 7.94682 20.2158 8.48867 20.3214 9.02125C20.6576 10.5603 22.4465 11.6784 24.1215 11.4323C26.5359 11.077 27.5094 9.04856 27.0767 6.98185C26.9423 6.35309 26.4132 6.11253 25.7818 6.08792C25.089 6.07152 24.4079 6.09065 23.7268 6.09339L23.7356 6.1016ZM51.0258 40.3362C48.395 41.9764 45.8548 41.9517 43.2416 40.3362C43.4829 41.2231 44.0807 41.989 44.9107 42.4739C45.2043 42.6145 45.4441 42.8366 45.5974 43.1097C45.7508 43.3828 45.8101 43.6935 45.7671 43.9994C45.7481 44.2952 45.7481 44.5919 45.7671 44.8878C45.8139 47.0228 45.3345 46.703 47.8776 46.7304C48.3512 46.7304 48.5266 46.5199 48.5149 46.0961C48.5149 45.4373 48.5559 44.773 48.5149 44.1169C48.4617 43.7793 48.5223 43.4346 48.6884 43.1308C48.8545 42.8271 49.1178 42.5793 49.4415 42.422C50.2074 41.9818 50.7131 41.2929 51.0171 40.3279L51.0258 40.3362ZM19.2662 40.3225C19.5936 41.2629 20.0525 41.9627 20.8271 42.3865C21.6018 42.8102 21.9262 43.3733 21.8122 44.1907C21.7932 44.441 21.7932 44.6922 21.8122 44.9425C21.8473 47.0119 21.4614 46.7085 23.8291 46.744C24.3524 46.744 24.5892 46.5745 24.5658 46.0633C24.5365 45.4263 24.6067 44.784 24.5454 44.1497C24.49 43.8004 24.5536 43.4437 24.7274 43.1301C24.901 42.8166 25.1758 42.5621 25.5128 42.4028C25.9063 42.1776 26.2464 41.8795 26.5123 41.5269C26.7782 41.1744 26.9643 40.7748 27.0592 40.3526C24.4401 41.9463 21.9233 41.9517 19.2573 40.3143L19.2662 40.3225ZM31.0843 53.0644C31.4263 54.065 31.9613 54.7566 32.7622 55.2131C33.0702 55.3538 33.3216 55.5833 33.4795 55.8678C33.6374 56.1523 33.6934 56.4768 33.6391 56.7932C33.6185 57.0662 33.6185 57.3403 33.6391 57.6133C33.683 59.8003 33.2329 59.4367 35.7145 59.4832C36.2349 59.4832 36.3986 59.2618 36.3869 58.8162C36.3869 58.2038 36.4337 57.5832 36.3869 56.9764C36.3221 56.6063 36.3853 56.2264 36.5671 55.892C36.7491 55.5578 37.0402 55.2864 37.3983 55.1174C37.7812 54.8903 38.1119 54.5943 38.3714 54.2465C38.6309 53.8988 38.8138 53.5063 38.9095 53.0918C36.27 54.6746 33.7502 54.6991 31.0755 53.0562L31.0843 53.0644ZM6.99197 53.141C7.16737 54.0158 7.62045 54.6527 8.59971 55.2432C8.87903 55.383 9.10712 55.5977 9.25452 55.8599C9.40201 56.1221 9.46207 56.4196 9.42697 56.7139C9.40357 57.0311 9.42697 57.3509 9.42697 57.6708C9.46198 59.8003 9.09367 59.434 11.4234 59.4722H11.4965C11.9555 59.5078 12.1688 59.3301 12.1513 58.8791C12.1279 58.2886 12.1952 57.6926 12.1367 57.1076C12.0613 56.7033 12.1269 56.2872 12.3238 55.9205C12.5206 55.5538 12.8383 55.256 13.2299 55.071C13.594 54.8798 13.9021 54.6077 14.127 54.2787C14.3517 53.9497 14.4864 53.574 14.519 53.1847C12.0032 54.6937 9.49127 54.6764 6.9832 53.1328L6.99197 53.141ZM55.3374 53.1C55.452 53.5449 55.6601 53.964 55.9497 54.3329C56.2393 54.7018 56.6045 55.0132 57.0241 55.2486C57.3058 55.3861 57.5363 55.6003 57.6851 55.8629C57.8338 56.1256 57.8938 56.4242 57.8572 56.7194C57.8309 57.0365 57.8572 57.3564 57.8572 57.6762C57.904 59.7921 57.4684 59.4367 59.8478 59.475H59.9939C60.4003 59.4941 60.5787 59.3028 60.5787 58.9283C60.5787 58.2913 60.6225 57.6516 60.5787 57.0146C60.5181 56.6338 60.5861 56.2448 60.7731 55.9018C60.9602 55.5588 61.2569 55.2789 61.6222 55.1011C62.0015 54.8832 62.3276 54.5931 62.5794 54.2499C62.8311 53.9065 63.0029 53.5176 63.0837 53.1081C60.4412 54.6746 57.9508 54.6746 55.3287 53.0918L55.3374 53.1ZM26.951 4.32466C27.2433 2.48213 26.8604 2.0748 25.1124 2.0748H22.0489C20.4822 2.0748 19.9326 2.73089 20.2279 4.00755C21.2627 4.00755 22.2536 4.00755 23.2416 4.00755C23.4162 4.03314 23.5951 4.00646 23.7526 3.93135C23.9101 3.85624 24.0381 3.73653 24.1186 3.58929C24.5132 2.97966 25.3521 3.02067 25.8724 3.53462C26.2069 3.82656 26.5678 4.09089 26.951 4.32466ZM22.6686 13.5155C22.6686 14.2126 22.4231 14.9452 23.2095 15.317C23.3908 15.3858 23.5863 15.4156 23.7816 15.4042C23.9769 15.3928 24.1669 15.3406 24.3378 15.2514C24.9867 14.8304 24.8172 14.1579 24.7617 13.5155H22.6686Z" fill="white"/>
<path d="M48.0562 15.6096C48.3338 15.3171 48.7138 14.9042 49.1085 14.5024C49.3355 14.2633 49.6169 14.0746 49.9319 13.9502C50.2471 13.8258 50.5879 13.7688 50.9295 13.7835C51.9029 13.7998 52.8764 13.7835 53.8527 13.7835C54.6565 13.7835 55.1155 14.1908 55.1067 14.8196C55.0979 15.4483 54.6623 15.8256 53.8906 15.8556C53.0401 15.883 52.1836 15.831 51.3359 15.883C50.989 15.9113 50.6606 16.0414 50.3975 16.2548C49.6931 16.848 49.0354 17.4904 48.3719 18.1274C47.8193 18.6741 47.2259 19.0787 46.3812 18.7342C45.5364 18.3898 45.5188 17.7091 45.5335 17.0011C45.5335 16.6429 45.5335 16.2821 45.5335 15.8638C45.2412 15.8638 45.019 15.8638 44.8027 15.8638C42.9407 15.8256 41.865 14.8333 41.8416 13.0836C41.8182 11.4652 41.8416 9.8496 41.8416 8.23124C41.8416 7.02567 41.8416 5.81736 41.8416 4.61178C41.8591 2.76925 42.9114 1.77417 44.867 1.77417C52.2488 1.77417 59.6288 1.77417 67.0067 1.77417C68.9185 1.77417 69.9912 2.78565 69.997 4.57078C69.997 7.39563 69.997 10.2205 69.997 13.0454C69.997 14.8223 68.898 15.8556 67.0067 15.8638C64.525 15.8638 62.0374 15.8802 59.5557 15.8638C59.1729 15.8825 58.796 15.7708 58.4946 15.5495C58.2607 15.3116 58.0883 14.784 58.2198 14.5297C58.3247 14.3524 58.4702 14.1992 58.6462 14.081C58.8221 13.9628 59.024 13.8826 59.237 13.8464C60.57 13.7643 61.9147 13.8108 63.2534 13.808C64.4694 13.808 65.6884 13.808 66.9073 13.808C67.5124 13.808 67.8018 13.6249 67.7842 13.0208C67.7706 10.2195 67.7706 7.41842 67.7842 4.61725C67.7842 4.07051 67.5854 3.8354 66.9716 3.83813C59.5937 3.84907 52.2147 3.84907 44.8348 3.83813C44.2502 3.83813 44.0486 4.04863 44.0514 4.56531C44.0514 7.38834 44.0514 10.2132 44.0514 13.0399C44.0514 13.5866 44.2911 13.8026 44.8787 13.819C45.4662 13.8354 46.1268 13.8026 46.5683 14.0678C47.1382 14.3903 47.5095 15.0081 48.0562 15.6096Z" fill="white"/>
<path d="M55.8901 5.74075H63.5517C63.7701 5.73255 63.9888 5.73803 64.2065 5.75715C64.3468 5.76405 64.4843 5.79716 64.6107 5.85456C64.7372 5.91196 64.8502 5.99247 64.9427 6.09134C65.0354 6.19021 65.1059 6.30544 65.1501 6.43021C65.1944 6.55499 65.2114 6.6868 65.2003 6.81784C65.2047 6.94428 65.1816 7.07024 65.1323 7.18808C65.0831 7.30593 65.0089 7.41321 64.9141 7.50343C64.8192 7.59364 64.7058 7.66493 64.5807 7.71296C64.4555 7.76099 64.3213 7.78477 64.186 7.78284C63.4084 7.82659 62.6309 7.80198 61.8475 7.80198C57.3479 7.80198 52.8492 7.80198 48.3515 7.80198C48.1322 7.80198 47.913 7.80198 47.6967 7.80198C47.5531 7.80073 47.4112 7.77304 47.2791 7.7205C47.147 7.66795 47.0272 7.59158 46.9266 7.49576C46.826 7.39993 46.7466 7.28651 46.6929 7.16199C46.6392 7.03746 46.6123 6.90427 46.6137 6.77C46.615 6.63573 46.6447 6.50303 46.7008 6.37947C46.7569 6.2559 46.8387 6.1439 46.9411 6.04984C47.0435 5.95579 47.1649 5.88153 47.298 5.83131C47.4311 5.7811 47.5736 5.7559 47.7171 5.75715C47.91 5.74075 48.1059 5.75715 48.3017 5.75715L55.8901 5.74075Z" fill="white"/>
<path d="M51.7392 9.56805C52.9319 9.56805 54.1245 9.56805 55.32 9.56805C56.1678 9.56805 56.6822 9.97539 56.6822 10.5986C56.6822 11.2219 56.1678 11.6211 55.3141 11.6238C52.8568 11.6238 50.3975 11.6238 47.9363 11.6238C47.1265 11.6238 46.6413 11.2383 46.6208 10.6315C46.6004 10.0246 47.106 9.579 47.9391 9.57073C49.199 9.56805 50.4647 9.56805 51.7392 9.56805Z" fill="#1B1C1E"/>
</g>
</svg>
