<svg width="80" height="70" viewBox="0 0 80 70" fill="none" xmlns="http://www.w3.org/2000/svg">
<g clip-path="url(#clip0_25_63)">
<path d="M34.965 55.2111C34.6111 55.1836 34.2796 55.0037 34.0374 54.7079C33.7953 54.4122 33.6606 54.0226 33.6606 53.6179C33.6606 53.2132 33.7953 52.8236 34.0374 52.5278C34.2796 52.232 34.6111 52.0522 34.965 52.0246H46.241C46.4324 52.0097 46.6245 52.0398 46.8052 52.1131C46.986 52.1864 47.1516 52.3014 47.2919 52.4508C47.4321 52.6002 47.5438 52.7809 47.6203 52.9817C47.6967 53.1824 47.7362 53.399 47.7362 53.6179C47.7362 53.8368 47.6967 54.0533 47.6203 54.2541C47.5438 54.4548 47.4321 54.6355 47.2919 54.785C47.1516 54.9344 46.986 55.0493 46.8052 55.1226C46.6245 55.1959 46.4324 55.2261 46.241 55.2111H34.965ZM40.603 27.2602C41.7359 27.2596 42.8578 27.5138 43.9046 28.0084C44.9513 28.5029 45.9023 29.228 46.7032 30.1422C47.5048 31.0543 48.1408 32.138 48.5747 33.331C49.0086 34.524 49.232 35.803 49.232 37.0946C49.232 38.3863 49.0086 39.6653 48.5747 40.8583C48.1408 42.0513 47.5048 43.1349 46.7032 44.0471C45.9037 44.9616 44.954 45.6872 43.9083 46.1823C42.8626 46.6773 41.7416 46.9322 40.6095 46.9322C39.4774 46.9322 38.3564 46.6773 37.3107 46.1823C36.265 45.6872 35.3152 44.9616 34.5157 44.0471C32.9001 42.2029 31.9924 39.7021 31.9924 37.0946C31.9924 34.4871 32.9001 31.9864 34.5157 30.1422C35.3152 29.2304 36.2643 28.5073 37.3088 28.0141C38.3532 27.5208 39.4726 27.2672 40.603 27.2676V27.2602ZM50.4142 3.05282H30.7918C31.8725 16.6309 49.4116 16.4601 50.4142 3.05282ZM10.3686 24.5119L19.9715 24.9872C20.3056 24.9958 20.6248 25.147 20.8659 25.4111C21.107 25.6752 21.2524 26.0328 21.2736 26.4134C21.2768 26.443 21.2768 26.4729 21.2736 26.5025V31.8654H18.6043V27.9658L9.32044 27.483C9.02606 27.487 8.73919 27.377 8.50663 27.171C8.50663 27.171 8.50663 27.171 8.47408 27.171C8.25085 26.963 8.09127 26.6795 8.01835 26.3614L5.03007 12.6793C5.0309 12.662 5.0309 12.6446 5.03007 12.6273C4.96511 12.2877 5.00657 11.9329 5.14726 11.6246C5.28566 11.2881 5.52957 11.0231 5.83085 10.8818L28.6564 0.163393C28.8953 0.032301 29.1604 -0.0240903 29.4246 -1.96775e-05H51.7814C52.1256 -0.0428947 52.4739 -0.00239707 52.8035 0.118826L75.3881 10.6367H75.4207C75.7021 10.7787 75.9325 11.0264 76.0734 11.3386C76.2144 11.6508 76.2574 12.0085 76.1954 12.3525L73.5457 26.4431C73.5457 26.4431 73.5457 26.4431 73.5457 26.5025C73.4758 26.8162 73.3181 27.0953 73.0965 27.2973C72.8612 27.5177 72.5675 27.6408 72.2631 27.6464L62.9923 27.7578V68.4698C62.9893 68.8745 62.8466 69.2615 62.5952 69.5469C62.4728 69.6913 62.3261 69.8059 62.1639 69.8838C62.0016 69.9616 61.8272 70.0012 61.6512 70H31.5796L31.3256 66.9397H60.297V26.25C60.2969 25.8525 60.433 25.4707 60.6763 25.1862C60.9196 24.9017 61.2508 24.737 61.5991 24.7273C64.7697 24.7273 67.9533 24.6456 71.1238 24.6084L73.3178 12.9764L53.0574 3.52078C51.56 20.33 29.8413 20.4563 28.1616 3.7139L7.89465 13.2141L10.3686 24.5119ZM18.7085 69.0789C18.6239 68.88 18.5816 68.6612 18.5848 68.4401V67.5934L18.7085 69.0789Z" fill="white"/>
<path fill-rule="evenodd" clip-rule="evenodd" d="M41.2174 30.0159C42.446 30.0159 43.6471 30.4312 44.669 31.2094C45.6908 31.9875 46.4877 33.0937 46.9591 34.3881C47.4304 35.6826 47.5551 37.1073 47.3173 38.4825C47.0795 39.8577 46.4899 41.1217 45.623 42.115C44.756 43.1082 43.6506 43.7861 42.4463 44.0632C41.2419 44.3402 39.9927 44.204 38.8561 43.6716C37.7196 43.1393 36.7468 42.2347 36.0605 41.0721C35.3742 39.9095 35.0051 38.5409 35 37.1392C35 35.2579 35.6551 33.4536 36.821 32.1233C37.987 30.793 39.5685 30.0456 41.2174 30.0456V30.0159Z" fill="white"/>
<path d="M11.8359 40.2292H17.0963C16.8196 40.8267 16.6743 41.4921 16.6731 42.1679C16.6741 42.4043 16.6915 42.6403 16.7252 42.8735H12.1679C12.205 42.6407 12.2224 42.4044 12.22 42.1679C12.2243 41.4922 12.0811 40.826 11.8033 40.2292H11.8359ZM9.06897 39.6944V38.6248C9.0724 37.0001 9.63918 35.4429 10.6455 34.2934C11.6519 33.1438 13.016 32.4953 14.4401 32.4894C15.8675 32.4894 17.2367 33.1353 18.2472 34.2855C19.2578 35.4357 19.8272 36.9962 19.8307 38.6248V39.7315C19.4782 39.8656 19.1763 40.1327 18.9748 40.4888C18.7733 40.845 18.6841 41.2688 18.722 41.6905C18.7599 42.1121 18.9227 42.5065 19.1834 42.8085C19.4441 43.1105 19.7872 43.3021 20.1562 43.3518C20.5252 43.4014 20.898 43.3061 21.2131 43.0816C21.5283 42.8571 21.7669 42.5167 21.8898 42.1167C22.0126 41.7166 22.0123 41.2807 21.8889 40.8809C21.7655 40.4811 21.5264 40.1412 21.2109 39.9172V38.6248C21.2057 36.5824 20.4919 34.6255 19.2255 33.1821C17.9591 31.7386 16.2432 30.926 14.4531 30.9221C12.6631 30.9241 10.9468 31.7362 9.6811 33.1804C8.41536 34.6245 7.70351 36.5825 7.70178 38.6248V40.0138C7.40158 40.2691 7.1866 40.6336 7.09226 41.047C6.99793 41.4604 7.02988 41.8982 7.18285 42.2881C7.33582 42.6781 7.60068 42.9969 7.93376 43.1921C8.26685 43.3873 8.64828 43.4471 9.01519 43.3618C9.38209 43.2765 9.71257 43.0511 9.95215 42.7228C10.1917 42.3945 10.3261 41.9828 10.3331 41.5557C10.3401 41.1285 10.2194 40.7114 9.99078 40.3731C9.76216 40.0347 9.43933 39.7953 9.07548 39.6944H9.06897ZM3.43746 40.2292H5.49475C5.21272 40.8247 5.06505 41.491 5.06507 42.1679C5.06599 42.4043 5.08341 42.6403 5.11715 42.8735H4.10803L2.36975 67.3854H26.9921L25.2474 42.8735H23.8086C23.8423 42.6403 23.8597 42.4043 23.8606 42.1679C23.8627 41.4916 23.7172 40.8254 23.4375 40.2292H25.9179C26.1238 40.2296 26.3275 40.2764 26.5174 40.3669C26.7074 40.4574 26.8798 40.5898 27.0247 40.7566C27.3059 41.0793 27.4767 41.5061 27.5065 41.9599L29.3489 68.0836C29.3489 68.143 29.3489 68.1876 29.3489 68.2099C29.3487 68.4443 29.307 68.6763 29.2265 68.892C29.146 69.1076 29.0282 69.3026 28.8802 69.4652C28.607 69.7726 28.2471 69.9595 27.8645 69.9926H1.48434C1.10133 69.9614 0.740895 69.7742 0.468711 69.4652C0.320698 69.3026 0.20291 69.1076 0.122375 68.892C0.0418395 68.6763 0.000206958 68.4443 -3.87326e-05 68.2099C-0.00259126 68.1679 -0.00259126 68.1257 -3.87324e-05 68.0836L1.84892 41.9525C1.87435 41.4996 2.04599 41.0735 2.33069 40.7566C2.62424 40.4212 3.02202 40.2316 3.43746 40.2292ZM11.5169 63.0401C11.3097 63.0401 11.111 62.9462 10.9645 62.779C10.8179 62.6119 10.7356 62.3852 10.7356 62.1488C10.7356 61.9124 10.8179 61.6857 10.9645 61.5185C11.111 61.3513 11.3097 61.2574 11.5169 61.2574H17.8385C18.0457 61.2574 18.2444 61.3513 18.3909 61.5185C18.5374 61.6857 18.6198 61.9124 18.6198 62.1488C18.6198 62.3852 18.5374 62.6119 18.3909 62.779C18.2444 62.9462 18.0457 63.0401 17.8385 63.0401H11.5169ZM14.6744 47.3822C15.3109 47.3851 15.9406 47.5316 16.5272 47.8133C17.1138 48.095 17.6458 48.5064 18.0924 49.0238C18.5426 49.5358 18.8998 50.1441 19.1435 50.8139C19.3872 51.4838 19.5127 52.2019 19.5127 52.9271C19.5127 53.6523 19.3872 54.3705 19.1435 55.0403C18.8998 55.7101 18.5426 56.3184 18.0924 56.8304L18.0078 56.927C17.4355 57.5489 16.7383 58.0014 15.9773 58.2448C15.2163 58.4882 14.4146 58.5152 13.6423 58.3233C12.8701 58.1315 12.1508 57.7267 11.5473 57.1443C10.9439 56.5619 10.4748 55.8197 10.181 54.9826C9.88714 54.1454 9.77757 53.2389 9.86185 52.3423C9.94612 51.4458 10.2217 50.5864 10.6644 49.8394C11.1071 49.0924 11.7035 48.4806 12.4015 48.0574C13.0994 47.6342 13.8776 47.4126 14.6679 47.4119L14.6744 47.3822Z" fill="white"/>
<path fill-rule="evenodd" clip-rule="evenodd" d="M14.6745 48.9272C15.3634 48.9272 16.0368 49.1602 16.6096 49.5969C17.1824 50.0336 17.6288 50.6542 17.8924 51.3803C18.156 52.1065 18.225 52.9055 18.0906 53.6763C17.9562 54.4472 17.6245 55.1553 17.1374 55.711C16.6503 56.2668 16.0296 56.6453 15.354 56.7986C14.6783 56.952 13.978 56.8733 13.3416 56.5725C12.7051 56.2717 12.1611 55.7624 11.7784 55.1089C11.3957 54.4554 11.1914 53.687 11.1914 52.9011C11.1914 51.8471 11.5584 50.8364 12.2116 50.0911C12.8648 49.3459 13.7507 48.9272 14.6745 48.9272Z" fill="white"/>
</g>
<defs>
<clipPath id="clip0_25_63">
<rect width="80" height="70" fill="white"/>
</clipPath>
</defs>
</svg>
